<svg width="81" height="400" viewBox="0 0 81 400" fill="none" xmlns="http://www.w3.org/2000/svg">
<g opacity="0.5">
<path d="M79.9433 0.225586H0.0561523V80H79.9433V0.225586Z" fill="#373D44"/>
<path d="M73.9069 0H72.5529L66.5727 3.44146L60.5924 0H59.2384L53.2581 3.44146L47.2779 0H45.9239L39.9436 3.44146L33.9633 0H32.6093L26.6291 3.49788L20.6488 0.0564124H19.2948L13.3146 3.49788L7.33428 0.0564124H5.98028L0 3.49788V12.976V13.7659V23.244L5.98028 26.6855L0 30.127V39.6051V40.3949V49.8731L5.98028 53.3146L0 56.756V66.2342V67.024V76.5022L5.98028 79.9436H7.33428L13.3146 76.5022L19.2948 79.9436H20.6488L26.6291 76.5022L32.6093 79.9436H33.9633L39.9436 76.5022L45.9239 79.9436H47.2779L53.2581 76.5022L59.2384 79.9436H60.5924L66.5727 76.5022L72.5529 79.9436H73.9069L79.8872 76.5022V67.024V66.2342V56.756L73.9069 53.3146L79.8872 49.8731V40.3949V39.6051V30.127L73.9069 26.6855L79.8872 23.244V13.7659V12.976V3.49788L73.9069 0ZM79.6051 4.06206V12.7504L73.6249 9.30889V0.620588L79.6051 4.06206ZM67.2497 66.6291L73.2299 63.1876L79.2102 66.6291L73.2299 70.0706L67.2497 66.6291ZM53.9352 66.6291L59.9154 63.1876L65.8956 66.6291L59.9154 70.0706L53.9352 66.6291ZM40.6206 66.6291L46.6009 63.1876L52.5811 66.6291L46.6009 70.0706L40.6206 66.6291ZM27.3061 66.6291L33.2863 63.1876L39.2666 66.6291L33.2863 70.0706L27.3061 66.6291ZM13.9351 66.6291L19.9154 63.1876L25.8957 66.6291L19.9154 70.0706L13.9351 66.6291ZM0.620613 66.6291L6.60086 63.1876L12.5811 66.6291L6.60086 70.0706L0.620613 66.6291ZM6.65726 36.5021L12.6375 39.9436L6.65726 43.3851L0.677017 39.9436L6.65726 36.5021ZM6.65726 9.87307L12.6375 13.3145L6.65726 16.756L0.677017 13.3145L6.65726 9.87307ZM19.9718 9.87307L25.9521 13.3145L19.9718 16.756L13.9915 13.3145L19.9718 9.87307ZM33.2863 9.87307L39.2666 13.3145L33.2863 16.756L27.3061 13.3145L33.2863 9.87307ZM46.6009 9.87307L52.5811 13.3145L46.6009 16.756L40.6206 13.3145L46.6009 9.87307ZM59.9154 9.87307L65.8956 13.3145L59.9154 16.756L53.9352 13.3145L59.9154 9.87307ZM72.9478 35.938L66.9676 39.3794V30.6911L72.9478 27.2497V35.938ZM72.9478 62.6234L66.9676 66.0649V57.3766L72.9478 53.9351V62.6234ZM59.6333 62.6234L53.6531 66.0649V57.3766L59.6333 53.9351V62.6234ZM46.2624 62.6234L40.2821 66.0649V57.3766L46.2624 53.9351V62.6234ZM32.9478 62.6234L26.9676 66.0649V57.3766L32.9478 53.9351V62.6234ZM19.6333 62.6234L13.653 66.0649V57.3766L19.6333 53.9351V62.6234ZM6.93935 53.8787L12.9196 57.3202V66.0085L6.93935 62.567V53.8787ZM6.93935 27.2497L12.9196 30.6911V39.3794L6.93935 35.938V27.2497ZM66.2906 49.2525L60.3103 52.694V44.0057L66.2906 40.5642V49.2525ZM52.9196 49.2525L46.9394 52.694V44.0057L52.9196 40.5642V49.2525ZM39.6051 49.2525L33.6249 52.694V44.0057L39.6051 40.5642V49.2525ZM26.2906 49.2525L20.3103 52.694V44.0057L26.2906 40.5642V49.2525ZM53.9352 40L59.9154 36.5586L65.8956 40L59.9154 43.4415L53.9352 40ZM66.2906 39.4358L60.3103 35.9944V27.3061L66.2906 30.7475V39.4358ZM59.6333 35.938L53.6531 39.3794V30.6911L59.6333 27.2497V35.938ZM40.6206 40L46.6009 36.5586L52.5811 40L46.6009 43.4415L40.6206 40ZM52.9196 39.4358L46.9394 35.9944V27.3061L52.9196 30.7475V39.4358ZM46.2624 35.938L40.2821 39.3794V30.6911L46.2624 27.2497V35.938ZM27.3061 40L33.2863 36.5586L39.2666 40L33.2863 43.4415L27.3061 40ZM39.6051 39.4358L33.6249 35.9944V27.3061L39.6051 30.7475V39.4358ZM32.9478 35.938L26.9676 39.3794V30.6911L32.9478 27.2497V35.938ZM13.9351 40L19.9154 36.5586L25.8957 40L19.9154 43.4415L13.9351 40ZM26.2906 39.4358L20.3103 35.9944V27.3061L26.2906 30.7475V39.4358ZM19.6333 35.938L13.653 39.3794V30.6911L19.6333 27.2497V35.938ZM13.653 40.5642L19.6333 44.0057V52.694L13.653 49.2525V40.5642ZM26.9676 40.5642L32.9478 44.0057V52.694L26.9676 49.2525V40.5642ZM40.2821 40.5642L46.2624 44.0057V52.694L40.2821 49.2525V40.5642ZM53.5966 40.5642L59.5769 44.0057V52.694L53.5966 49.2525V40.5642ZM60.5924 26.6855L66.5727 23.244L72.5529 26.6855L66.5727 30.127L60.5924 26.6855ZM66.2906 22.6234L60.3103 26.0649V17.3766L66.2906 13.9351V22.6234ZM53.2581 30.127L47.2779 26.6855L53.2581 23.244L59.2384 26.6855L53.2581 30.127ZM52.9196 22.6234L46.9394 26.0649V17.3766L52.9196 13.9351V22.6234ZM39.9436 30.127L33.9633 26.6855L39.9436 23.244L45.9239 26.6855L39.9436 30.127ZM39.6051 22.6234L33.6249 26.0649V17.3766L39.6051 13.9351V22.6234ZM26.6291 30.127L20.6488 26.6855L26.6291 23.244L32.6093 26.6855L26.6291 30.127ZM26.2906 22.6234L20.3103 26.0649V17.3766L26.2906 13.9351V22.6234ZM13.3146 30.127L7.33428 26.6855L13.3146 23.244L19.2948 26.6855L13.3146 30.127ZM12.976 22.6234L6.99579 26.0649V17.3766L12.976 13.9351V22.6234ZM12.976 49.2525L6.99579 52.694V44.0057L12.976 40.5642V49.2525ZM7.27787 53.3146L13.2581 49.8731L19.2384 53.3146L13.2581 56.756L7.27787 53.3146ZM20.3103 53.8787L26.2906 57.3202V66.0085L20.3103 62.567V53.8787ZM20.6488 53.3146L26.6291 49.8731L32.6093 53.3146L26.6291 56.756L20.6488 53.3146ZM33.6249 53.8787L39.6051 57.3202V66.0085L33.6249 62.567V53.8787ZM33.9633 53.3146L39.9436 49.8731L45.9239 53.3146L39.9436 56.756L33.9633 53.3146ZM46.9394 53.8787L52.9196 57.3202V66.0085L46.9394 62.567V53.8787ZM47.2779 53.3146L53.2581 49.8731L59.2384 53.3146L53.2581 56.756L47.2779 53.3146ZM60.2539 53.8787L66.2342 57.3202V66.0085L60.2539 62.567V53.8787ZM60.5924 53.3146L66.5727 49.8731L72.5529 53.3146L66.5727 56.756L60.5924 53.3146ZM72.9478 52.7504L66.9676 49.3089V40.6206L72.9478 44.0621V52.7504ZM72.9478 26.0649L66.9676 22.6234V13.9351L72.9478 17.3766V26.0649ZM59.6333 17.3766V26.0649L53.6531 22.6234V13.9351L59.6333 17.3766ZM46.2624 17.3766V26.0649L40.2821 22.6234V13.9351L46.2624 17.3766ZM32.9478 17.3766V26.0649L26.9676 22.6234V13.9351L32.9478 17.3766ZM19.6333 17.3766V26.0649L13.653 22.6234V13.9351L19.6333 17.3766ZM67.2497 40L73.2299 36.5586L79.2102 40L73.2299 43.4415L67.2497 40ZM67.2497 13.3145L73.2299 9.87307L79.2102 13.3145L73.2299 16.756L67.2497 13.3145ZM66.9112 4.06206L72.8914 0.620588V9.30889L66.9112 12.7504V4.06206ZM66.2906 4.06206V12.7504L60.3103 9.30889V0.620588L66.2906 4.06206ZM53.5966 4.06206L59.5769 0.620588V9.30889L53.5966 12.7504V4.06206ZM52.9196 4.06206V12.7504L46.9394 9.30889V0.620588L52.9196 4.06206ZM40.2821 4.06206L46.2624 0.620588V9.30889L40.2821 12.7504V4.06206ZM39.6051 4.06206V12.7504L33.6249 9.30889V0.620588L39.6051 4.06206ZM26.9676 4.06206L32.9478 0.620588V9.30889L26.9676 12.7504V4.06206ZM26.2906 4.06206V12.7504L20.3103 9.30889V0.620588L26.2906 4.06206ZM13.653 4.06206L19.6333 0.620588V9.30889L13.653 12.7504V4.06206ZM12.976 4.06206V12.7504L6.99579 9.30889V0.620588L12.976 4.06206ZM0.282088 4.06206L6.26236 0.620588V9.30889L0.282088 12.7504V4.06206ZM0.282088 22.6234V13.9351L6.26236 17.3766V26.0649L0.282088 22.6234ZM0.282088 30.6911L6.26236 27.2497V35.938L0.282088 39.3794V30.6911ZM0.282088 49.2525V40.5642L6.26236 44.0057V52.694L0.282088 49.2525ZM0.282088 57.3766L6.26236 53.9351V62.6234L0.282088 66.0649V57.3766ZM0.282088 75.938V67.2497L6.26236 70.6912V79.3794L0.282088 75.938ZM6.93935 79.3794V70.6912L12.9196 67.2497V75.938L6.93935 79.3794ZM13.653 75.938V67.2497L19.6333 70.6912V79.3794L13.653 75.938ZM20.3103 79.3794V70.6912L26.2906 67.2497V75.938L20.3103 79.3794ZM26.9676 75.938V67.2497L32.9478 70.6912V79.3794L26.9676 75.938ZM33.6249 79.3794V70.6912L39.6051 67.2497V75.938L33.6249 79.3794ZM40.2821 75.938V67.2497L46.2624 70.6912V79.3794L40.2821 75.938ZM46.9394 79.3794V70.6912L52.9196 67.2497V75.938L46.9394 79.3794ZM53.5966 75.938V67.2497L59.5769 70.6912V79.3794L53.5966 75.938ZM60.2539 79.3794V70.6912L66.2342 67.2497V75.938L60.2539 79.3794ZM66.9112 75.938V67.2497L72.8914 70.6912V79.3794L66.9112 75.938ZM79.6051 75.938L73.6249 79.3794V70.6912L79.6051 67.2497V75.938ZM79.6051 57.3766V66.0649L73.6249 62.6234V53.9351L79.6051 57.3766ZM79.6051 49.2525L73.6249 52.694V44.0057L79.6051 40.5642V49.2525ZM79.6051 30.6911V39.3794L73.6249 35.938V27.2497L79.6051 30.6911ZM79.6051 22.6234L73.6249 26.0649V17.3766L79.6051 13.9351V22.6234Z" fill="#7F868E"/>
<path d="M79.9997 80H0.0561523V160H79.9997V80Z" fill="#7F868E"/>
<path d="M17.6583 80H26.2901V88.5755C26.2901 90.8322 24.4848 92.6375 22.2281 92.6375H13.5962V84.0621C13.5962 81.8054 15.4016 80 17.6583 80Z" fill="#373D44"/>
<path d="M13.5962 102.116V93.5403H22.2281C24.4848 93.5403 26.2901 95.3456 26.2901 97.6023V106.178H17.6583C15.4016 106.178 13.5962 104.316 13.5962 102.116Z" fill="#373D44"/>
<path d="M8.63188 80H0V88.5755C0 90.8322 1.80536 92.6375 4.06206 92.6375H12.6939V84.0621C12.6939 81.8054 10.8886 80 8.63188 80Z" fill="#373D44"/>
<path d="M0.0561523 97.6023V106.178H8.68803C10.9447 106.178 12.7501 104.372 12.7501 102.116V93.5403H4.0618C1.86152 93.5403 0.0561523 95.3456 0.0561523 97.6023Z" fill="#373D44"/>
<path d="M44.5132 80.1125H53.1451V88.688C53.1451 90.9447 51.3397 92.7501 49.083 92.7501H40.4512V84.1746C40.4512 81.9179 42.3129 80.1125 44.5132 80.1125Z" fill="#373D44"/>
<path d="M40.4512 102.228V93.6528H49.083C51.3397 93.6528 53.1451 95.4582 53.1451 97.7149V106.29H44.5132C42.3129 106.234 40.4512 104.429 40.4512 102.228Z" fill="#373D44"/>
<path d="M35.543 80.1128H26.9111V88.6882C26.9111 90.9449 28.7165 92.7503 30.9732 92.7503H39.6051V84.1748C39.5487 81.9181 37.7433 80.1128 35.543 80.1128Z" fill="#373D44"/>
<path d="M26.9106 97.7149V106.29H35.5425C37.7992 106.29 39.6046 104.485 39.6046 102.228V93.6528H30.9727C28.716 93.6528 26.9106 95.4582 26.9106 97.7149Z" fill="#373D44"/>
<path d="M71.4239 80.1128H80.0558V88.6882C80.0558 90.9449 78.2504 92.7503 75.9937 92.7503H67.3618V84.1748C67.3618 81.9181 69.1672 80.1128 71.4239 80.1128Z" fill="#373D44"/>
<path d="M67.3618 102.228V93.6528H75.9937C78.2504 93.6528 80.0558 95.4582 80.0558 97.7149V106.29H71.4239C69.1672 106.234 67.3618 104.429 67.3618 102.228Z" fill="#373D44"/>
<path d="M62.398 80.1128H53.7661V88.6882C53.7661 90.9449 55.5715 92.7503 57.8282 92.7503H66.46V84.1748C66.46 81.9181 64.6547 80.1128 62.398 80.1128Z" fill="#373D44"/>
<path d="M53.7656 97.7149V106.29H62.3975C64.6542 106.29 66.4596 104.485 66.4596 102.228V93.6528H57.8277C55.6274 93.6528 53.7656 95.4582 53.7656 97.7149Z" fill="#373D44"/>
<path d="M17.6583 107.137H26.2901V115.712C26.2901 117.969 24.4848 119.774 22.2281 119.774H13.5962V111.199C13.5962 108.942 15.4016 107.137 17.6583 107.137Z" fill="#373D44"/>
<path d="M13.5962 129.252V120.677H22.2281C24.4848 120.677 26.2901 122.482 26.2901 124.739V133.315H17.6583C15.4016 133.315 13.5962 131.453 13.5962 129.252Z" fill="#373D44"/>
<path d="M8.63188 107.137H0V115.712C0 117.969 1.80536 119.774 4.06206 119.774H12.6939V111.199C12.6939 108.942 10.8886 107.137 8.63188 107.137Z" fill="#373D44"/>
<path d="M0.0561523 124.739V133.315H8.68803C10.9447 133.315 12.7501 131.509 12.7501 129.252V120.677H4.0618C1.86152 120.677 0.0561523 122.482 0.0561523 124.739Z" fill="#373D44"/>
<path d="M44.5132 107.137H53.1451V115.712C53.1451 117.969 51.3397 119.774 49.083 119.774H40.4512V111.199C40.4512 108.942 42.3129 107.137 44.5132 107.137Z" fill="#373D44"/>
<path d="M40.4512 129.252V120.677H49.083C51.3397 120.677 53.1451 122.482 53.1451 124.739V133.315H44.5132C42.3129 133.315 40.4512 131.453 40.4512 129.252Z" fill="#373D44"/>
<path d="M35.543 107.137H26.9111V115.712C26.9111 117.969 28.7165 119.774 30.9732 119.774H39.6051V111.199C39.5487 108.942 37.7433 107.137 35.543 107.137Z" fill="#373D44"/>
<path d="M26.9106 124.739V133.315H35.5425C37.7992 133.315 39.6046 131.509 39.6046 129.252V120.677H30.9727C28.716 120.677 26.9106 122.482 26.9106 124.739Z" fill="#373D44"/>
<path d="M71.4239 107.137H80.0558V115.712C80.0558 117.969 78.2504 119.774 75.9937 119.774H67.3618V111.199C67.3618 108.942 69.1672 107.137 71.4239 107.137Z" fill="#373D44"/>
<path d="M67.3618 129.253V120.677H75.9937C78.2504 120.677 80.0558 122.483 80.0558 124.739V133.315H71.4239C69.1672 133.315 67.3618 131.453 67.3618 129.253Z" fill="#373D44"/>
<path d="M62.398 107.137H53.7661V115.712C53.7661 117.969 55.5715 119.774 57.8282 119.774H66.46V111.199C66.46 108.942 64.6547 107.137 62.398 107.137Z" fill="#373D44"/>
<path d="M53.7656 124.739V133.315H62.3975C64.6542 133.315 66.4596 131.509 66.4596 129.253V120.677H57.8277C55.6274 120.677 53.7656 122.483 53.7656 124.739Z" fill="#373D44"/>
<path d="M17.6583 133.822H26.2901V142.398C26.2901 144.654 24.4848 146.46 22.2281 146.46H13.5962V137.884C13.5962 135.684 15.4016 133.822 17.6583 133.822Z" fill="#373D44"/>
<path d="M13.5962 155.938V147.363H22.2281C24.4848 147.363 26.2901 149.168 26.2901 151.425V160H17.6583C15.4016 160 13.5962 158.195 13.5962 155.938Z" fill="#373D44"/>
<path d="M8.63188 133.822H0V142.398C0 144.654 1.80536 146.46 4.06206 146.46H12.6939V137.884C12.6939 135.684 10.8886 133.822 8.63188 133.822Z" fill="#373D44"/>
<path d="M0.0561523 151.425V160H8.68803C10.9447 160 12.7501 158.195 12.7501 155.938V147.363H4.0618C1.86152 147.363 0.0561523 149.168 0.0561523 151.425Z" fill="#373D44"/>
<path d="M44.5132 133.822H53.1451V142.398C53.1451 144.654 51.3397 146.46 49.083 146.46H40.4512V137.884C40.4512 135.684 42.3129 133.822 44.5132 133.822Z" fill="#373D44"/>
<path d="M40.4512 155.938V147.363H49.083C51.3397 147.363 53.1451 149.168 53.1451 151.425V160H44.5132C42.3129 160 40.4512 158.195 40.4512 155.938Z" fill="#373D44"/>
<path d="M35.543 133.822H26.9111V142.398C26.9111 144.654 28.7165 146.46 30.9732 146.46H39.6051V137.884C39.5487 135.684 37.7433 133.822 35.543 133.822Z" fill="#373D44"/>
<path d="M26.9106 151.425V160H35.5425C37.7992 160 39.6046 158.195 39.6046 155.938V147.363H30.9727C28.716 147.363 26.9106 149.168 26.9106 151.425Z" fill="#373D44"/>
<path d="M71.4239 133.822H80.0558V142.398C80.0558 144.654 78.2504 146.46 75.9937 146.46H67.3618V137.884C67.3618 135.684 69.1672 133.822 71.4239 133.822Z" fill="#373D44"/>
<path d="M67.3618 155.938V147.363H75.9937C78.2504 147.363 80.0558 149.168 80.0558 151.425V160H71.4239C69.1672 160 67.3618 158.195 67.3618 155.938Z" fill="#373D44"/>
<path d="M62.398 133.822H53.7661V142.398C53.7661 144.654 55.5715 146.46 57.8282 146.46H66.46V137.884C66.46 135.684 64.6547 133.822 62.398 133.822Z" fill="#373D44"/>
<path d="M53.7656 151.425V160H62.3975C64.6542 160 66.4596 158.195 66.4596 155.938V147.363H57.8277C55.6274 147.363 53.7656 149.168 53.7656 151.425Z" fill="#373D44"/>
<path d="M79.9435 160H0V240H79.9435V160Z" fill="#373D44"/>
<path d="M48.4971 187.72L46.9728 186.874L45.5049 187.72V189.471L46.9728 190.317L48.4971 189.471V187.72Z" fill="#7F868E"/>
<path d="M18.0664 182.131L19.5908 182.978L21.1151 182.131V180.381L19.5908 179.534L18.0664 180.381V182.131Z" fill="#7F868E"/>
<path d="M23.9375 171.856V170.106L22.4697 169.259L20.9453 170.106V171.856L22.4697 172.703L23.9375 171.856Z" fill="#7F868E"/>
<path d="M58.9976 235.258V237.008L60.5219 237.855L61.9898 237.008V235.258L60.5219 234.411L58.9976 235.258Z" fill="#7F868E"/>
<path d="M68.3696 179.647L69.8375 180.55L71.3619 179.647V177.897L69.8375 177.05L68.3696 177.897V179.647Z" fill="#7F868E"/>
<path d="M54.9897 180.381V182.131L56.5141 182.978L58.0384 182.131V180.381L56.5141 179.534L54.9897 180.381Z" fill="#7F868E"/>
<path d="M34.439 162.653V160.96L32.9147 160.056L31.4468 160.96V162.653L32.9147 163.557L34.439 162.653Z" fill="#7F868E"/>
<path d="M10.7276 195.06V193.31L9.2597 192.463L7.73535 193.31V195.06L9.2597 195.907L10.7276 195.06Z" fill="#7F868E"/>
<path d="M45.8428 206.747L47.3107 207.594L48.835 206.747V204.997L47.3107 204.15L45.8428 204.997V206.747Z" fill="#7F868E"/>
<path d="M63.0635 231.814V233.62L64.7007 234.58L66.2815 233.62V231.814L64.7007 230.91L63.0635 231.814Z" fill="#7F868E"/>
<path d="M57.0779 169.993V168.017L55.3841 167.057L53.6904 168.017V169.993L55.3841 170.953L57.0779 169.993Z" fill="#7F868E"/>
<path d="M62.0469 240H63.3454L62.7244 239.605L62.0469 240Z" fill="#7F868E"/>
<path d="M60.917 162.653L62.7236 163.726L64.4738 162.653V160.621L63.3447 160H62.0461L60.917 160.621V162.653Z" fill="#7F868E"/>
<path d="M37.4874 173.945V172.195L35.963 171.348L34.4951 172.195V173.945L35.963 174.792L37.4874 173.945Z" fill="#7F868E"/>
<path d="M7.11424 218.49V216.401L5.30761 215.328L3.50098 216.401V218.49L5.30761 219.562L7.11424 218.49Z" fill="#7F868E"/>
<path d="M73.6202 189.809L72.1523 188.962L70.6279 189.809V191.559L72.1523 192.406L73.6202 191.559V189.809Z" fill="#7F868E"/>
<path d="M35.9634 220.014V218.264L34.4955 217.361L32.9712 218.264V220.014L34.4955 220.861L35.9634 220.014Z" fill="#7F868E"/>
<path d="M6.71777 240H7.45172L7.11297 239.774L6.71777 240Z" fill="#7F868E"/>
<path d="M5.58887 162.371L7.11321 163.218L8.5811 162.371V160.621L7.45196 160H6.71801L5.58887 160.621V162.371Z" fill="#7F868E"/>
<path d="M72.999 181.059V182.809L74.5234 183.656L76.0477 182.809V181.059L74.5234 180.212L72.999 181.059Z" fill="#7F868E"/>
<path d="M46.8597 183.938V182.075L45.2789 181.171L43.6416 182.075V183.938L45.2789 184.841L46.8597 183.938Z" fill="#7F868E"/>
<path d="M46.2955 193.818V192.068L44.8276 191.221L43.3032 192.068V193.818L44.8276 194.721L46.2955 193.818Z" fill="#7F868E"/>
<path d="M77.0068 184.502V186.196L78.5312 187.099L79.9991 186.253V184.446L78.5312 183.599L77.0068 184.502Z" fill="#7F868E"/>
<path d="M6.88818 185.914V187.608L8.41253 188.511L9.88042 187.608V185.914L8.41253 185.01L6.88818 185.914Z" fill="#7F868E"/>
<path d="M51.7149 192.124L50.247 191.221L48.7227 192.124V193.818L50.247 194.721L51.7149 193.818V192.124Z" fill="#7F868E"/>
<path d="M57.7557 187.834L56.2314 186.987L54.707 187.834V189.584L56.2314 190.431L57.7557 189.584V187.834Z" fill="#7F868E"/>
<path d="M62.3853 204.658V202.908L60.9174 202.061L59.3931 202.908V204.658L60.9174 205.505L62.3853 204.658Z" fill="#7F868E"/>
<path d="M4.34668 231.927V233.62L5.87102 234.524L7.33892 233.62V231.927L5.87102 231.023L4.34668 231.927Z" fill="#7F868E"/>
<path d="M16.0337 217.417V219.506L17.8403 220.522L19.5905 219.506V217.417L17.8403 216.401L16.0337 217.417Z" fill="#7F868E"/>
<path d="M5.41978 205.392V203.642L3.89544 202.795L2.37109 203.642V205.392L3.89544 206.239L5.41978 205.392Z" fill="#7F868E"/>
<path d="M69.2738 167.452V165.702L67.7494 164.855L66.2251 165.702V167.452L67.7494 168.299L69.2738 167.452Z" fill="#7F868E"/>
<path d="M78.9838 203.867V202.174L77.4594 201.27L75.9351 202.174V203.867L77.4594 204.771L78.9838 203.867Z" fill="#7F868E"/>
<path d="M66.5635 194.213V195.963L68.0314 196.81L69.5557 195.963V194.213L68.0314 193.366L66.5635 194.213Z" fill="#7F868E"/>
<path d="M62.3853 186.422V184.446L60.6351 183.43L58.9414 184.446V186.422L60.6351 187.438L62.3853 186.422Z" fill="#7F868E"/>
<path d="M50.0771 229.216V230.967L51.545 231.814L53.0694 230.967V229.216L51.545 228.37L50.0771 229.216Z" fill="#7F868E"/>
<path d="M39.125 222.103L37.6572 221.256L36.1328 222.103V223.853L37.6572 224.7L39.125 223.853V222.103Z" fill="#7F868E"/>
<path d="M49.4561 218.038L50.9804 218.941L52.4483 218.038V216.344L50.9804 215.441L49.4561 216.344V218.038Z" fill="#7F868E"/>
<path d="M37.3188 197.262L35.4557 196.189L33.5361 197.262V199.407L35.4557 200.536L37.3188 199.407V197.262Z" fill="#7F868E"/>
<path d="M18.1797 198.221L16.6554 197.318L15.1875 198.221V199.915L16.6554 200.818L18.1797 199.915V198.221Z" fill="#7F868E"/>
<path d="M15.0181 210.981L16.5424 211.828L18.0103 210.981V209.231L16.5424 208.384L15.0181 209.231V210.981Z" fill="#7F868E"/>
<path d="M14.961 206.803V205.109L13.4931 204.206L11.9688 205.109V206.803L13.4931 207.706L14.961 206.803Z" fill="#7F868E"/>
<path d="M33.2529 228.708V230.459L34.7208 231.305L36.2452 230.459V228.708L34.7208 227.862L33.2529 228.708Z" fill="#7F868E"/>
<path d="M19.9287 231.983V233.733L21.3966 234.58L22.9209 233.733V231.983L21.3966 231.136L19.9287 231.983Z" fill="#7F868E"/>
<path d="M27.8897 224.418V222.667L26.4218 221.764L24.8975 222.667V224.418L26.4218 225.265L27.8897 224.418Z" fill="#7F868E"/>
<path d="M14.7358 169.033L16.2602 169.88L17.7845 169.033V167.283L16.2602 166.436L14.7358 167.283V169.033Z" fill="#7F868E"/>
<path d="M15.9776 163.5V161.807L14.4532 160.903L12.9854 161.807V163.5L14.4532 164.404L15.9776 163.5Z" fill="#7F868E"/>
<path d="M32.2372 168.864V166.831L30.487 165.872L28.7368 166.831V168.864L30.487 169.88L32.2372 168.864Z" fill="#7F868E"/>
<path d="M40.1982 174.002V175.752L41.7226 176.599L43.2469 175.752V174.002L41.7226 173.155L40.1982 174.002Z" fill="#7F868E"/>
<path d="M50.0771 178.066L51.8838 179.139L53.6904 178.066V175.977L51.8838 174.905L50.0771 175.977V178.066Z" fill="#7F868E"/>
<path d="M77.1775 229.612L75.1451 228.426L73.0562 229.612V231.983L75.1451 233.168L77.1775 231.983V229.612Z" fill="#7F868E"/>
<path d="M66.5635 212.901V215.385L68.7088 216.627L70.8542 215.385V212.901L68.7088 211.658L66.5635 212.901Z" fill="#7F868E"/>
<path d="M4.62962 168.13V165.646L2.48424 164.46L0.338867 165.646V168.13L2.48424 169.372L4.62962 168.13Z" fill="#7F868E"/>
<path d="M59.2234 230.402L57.5297 229.442L55.8359 230.402V232.378L57.5297 233.338L59.2234 232.378V230.402Z" fill="#7F868E"/>
<path d="M42.3995 206.069V203.641L40.3106 202.399L38.2217 203.641V206.069L40.3106 207.255L42.3995 206.069Z" fill="#7F868E"/>
<path d="M50.3036 170.558V168.073L48.1017 166.775L45.8999 168.073V170.558L48.1017 171.856L50.3036 170.558Z" fill="#7F868E"/>
<path d="M10.1056 175.921V174.058L8.46832 173.098L6.83105 174.058V175.921L8.46832 176.881L10.1056 175.921Z" fill="#7F868E"/>
<path d="M24.728 189.132V191.108L26.4217 192.124L28.1719 191.108V189.132L26.4217 188.116L24.728 189.132Z" fill="#7F868E"/>
<path d="M58.8287 226.055V223.401L56.514 222.046L54.1992 223.401V226.055L56.514 227.41L58.8287 226.055Z" fill="#7F868E"/>
<path d="M31.3345 207.876L32.8588 208.722L34.3267 207.876V206.125L32.8588 205.279L31.3345 206.125V207.876Z" fill="#7F868E"/>
<path d="M59.9014 176.203V179.534L62.7807 181.171L65.66 179.534V176.203L62.7807 174.51L59.9014 176.203Z" fill="#7F868E"/>
<path d="M10.7276 207.255L9.2597 206.408L7.73535 207.255V209.005L9.2597 209.852L10.7276 209.005V207.255Z" fill="#7F868E"/>
<path d="M51.2632 199.633L49.7953 198.786L48.271 199.633V201.383L49.7953 202.23L51.2632 201.383V199.633Z" fill="#7F868E"/>
<path d="M38.3916 231.983V235.201L41.1016 236.782L43.868 235.201V231.983L41.1016 230.402L38.3916 231.983Z" fill="#7F868E"/>
<path d="M57.022 215.046V217.981L59.5061 219.449L62.0467 217.981V215.046L59.5061 213.634L57.022 215.046Z" fill="#7F868E"/>
<path d="M69.2731 173.267V171.461L67.7488 170.614L66.168 171.461V173.267L67.7488 174.171L69.2731 173.267Z" fill="#7F868E"/>
<path d="M71.7011 201.101L69.1041 199.633L66.5635 201.101V204.037L69.1041 205.561L71.7011 204.037V201.101Z" fill="#7F868E"/>
<path d="M13.6059 182.188V180.042L11.6863 178.969L9.82324 180.042V182.188L11.6863 183.26L13.6059 182.188Z" fill="#7F868E"/>
<path d="M9.93604 236.387V238.25L11.5168 239.153L13.0976 238.25V236.387L11.5168 235.483L9.93604 236.387Z" fill="#7F868E"/>
<path d="M42.7949 166.323V162.936L39.8591 161.242L36.9233 162.936V166.323L39.8591 168.017L42.7949 166.323Z" fill="#7F868E"/>
<path d="M21.0585 187.438L16.9371 185.067L12.7593 187.438V192.237L16.9371 194.608L21.0585 192.237V187.438Z" fill="#7F868E"/>
<path d="M56.2879 207.537L53.8038 206.069L51.2632 207.537V210.416L53.8038 211.884L56.2879 210.416V207.537Z" fill="#7F868E"/>
<path d="M44.4321 213.634L46.8033 214.989L49.1745 213.634V210.868L46.8033 209.513L44.4321 210.868V213.634Z" fill="#7F868E"/>
<path d="M72.6038 160H67.1274L69.8374 161.581L72.6038 160Z" fill="#7F868E"/>
<path d="M73 236.104L69.8384 234.241L66.6768 236.104V239.774L67.1284 240H72.6048L73 239.774V236.104Z" fill="#7F868E"/>
<path d="M78.0806 226.281L80.0001 227.353V221.538L78.0806 222.667V226.281Z" fill="#7F868E"/>
<path d="M4.29075 226.281V222.667L1.1856 220.861L0 221.538V227.353L1.1856 228.031L4.29075 226.281Z" fill="#7F868E"/>
<path d="M33.7049 224.361L32.1806 223.458L30.6562 224.361V226.168L32.1806 227.015L33.7049 226.168V224.361Z" fill="#7F868E"/>
<path d="M63.0063 168.864V166.718L61.1432 165.646L59.2236 166.718V168.864L61.1432 169.937L63.0063 168.864Z" fill="#7F868E"/>
<path d="M29.5843 214.312V209.682L25.5759 207.368L21.5674 209.682V214.312L25.5759 216.627L29.5843 214.312Z" fill="#7F868E"/>
<path d="M3.78263 192.068L0 189.866V198.899L3.78263 196.697V192.068Z" fill="#7F868E"/>
<path d="M75.8218 192.068V196.697L79.7738 199.012L79.9996 198.899V189.866L79.7738 189.753L75.8218 192.068Z" fill="#7F868E"/>
<path d="M32.1807 187.269V191.729L36.0762 193.987L39.9153 191.729V187.269L36.0762 185.067L32.1807 187.269Z" fill="#7F868E"/>
<path d="M51.0934 163.5L55.1583 161.186V160H47.085V161.186L51.0934 163.5Z" fill="#7F868E"/>
<path d="M51.0934 234.185L47.085 236.5V240H55.1583V236.5L51.0934 234.185Z" fill="#7F868E"/>
<path d="M23.7686 180.494L28.1158 182.978L32.4065 180.494V175.469L28.1158 172.985L23.7686 175.469V180.494Z" fill="#7F868E"/>
<path d="M9.48438 217.36L10.9523 218.264L12.4766 217.36V215.667L10.9523 214.763L9.48438 215.667V217.36Z" fill="#7F868E"/>
<path d="M72.3783 186.478V184.672L70.8539 183.768L69.3296 184.672V186.478L70.8539 187.382L72.3783 186.478Z" fill="#7F868E"/>
<path d="M13.7759 173.38V176.542L16.4858 178.179L19.2522 176.542V173.38L16.4858 171.8L13.7759 173.38Z" fill="#7F868E"/>
<path d="M39.3506 215.78V213.916L37.7698 213.013L36.189 213.916V215.78L37.7698 216.683L39.3506 215.78Z" fill="#7F868E"/>
<path d="M41.4957 179.478L39.6326 178.405L37.7695 179.478V181.68L39.6326 182.752L41.4957 181.68V179.478Z" fill="#7F868E"/>
<path d="M11.7432 168.186V165.815L9.71069 164.629L7.67822 165.815V168.186L9.71069 169.372L11.7432 168.186Z" fill="#7F868E"/>
<path d="M74.8623 173.888V177.106L77.6852 178.744L79.9999 177.389V173.606L77.6852 172.308L74.8623 173.888Z" fill="#7F868E"/>
<path d="M53.3525 183.43L51.3201 182.244L49.2876 183.43V185.745L51.3201 186.93L53.3525 185.745V183.43Z" fill="#7F868E"/>
<path d="M43.6984 196.415L41.8918 195.399L40.1416 196.415V198.504L41.8918 199.52L43.6984 198.504V196.415Z" fill="#7F868E"/>
<path d="M6.20976 183.486V180.889L3.89501 179.534L1.63672 180.889V183.486L3.89501 184.841L6.20976 183.486Z" fill="#7F868E"/>
<path d="M32.3501 234.128V235.992L33.9874 236.951L35.6246 235.992V234.128L33.9874 233.169L32.3501 234.128Z" fill="#7F868E"/>
<path d="M53.522 198.786L57.1917 200.875L60.8614 198.786V194.552L57.1917 192.406L53.522 194.552V198.786Z" fill="#7F868E"/>
<path d="M65.4339 210.416V208.045L63.4014 206.86L61.3125 208.045V210.416L63.4014 211.602L65.4339 210.416Z" fill="#7F868E"/>
<path d="M9.42871 225.095V230.233L13.8888 232.83L18.349 230.233V225.095L13.8888 222.498L9.42871 225.095Z" fill="#7F868E"/>
<path d="M10.3882 202.061V199.915L8.58153 198.899L6.7749 199.915V202.061L8.58153 203.077L10.3882 202.061Z" fill="#7F868E"/>
<path d="M76.0478 167.283V164.686L73.7895 163.387L71.5312 164.686V167.283L73.7895 168.581L76.0478 167.283Z" fill="#7F868E"/>
<path d="M1.976 209.513L0 208.384V215.102L1.976 213.917V209.513Z" fill="#7F868E"/>
<path d="M74.3545 209.513V213.917L78.1936 216.119L80.0002 215.102V208.384L78.1936 207.311L74.3545 209.513Z" fill="#7F868E"/>
<path d="M63.7969 190.544L65.7729 191.729L67.8053 190.544V188.229L65.7729 187.043L63.7969 188.229V190.544Z" fill="#7F868E"/>
<path d="M42.1172 221.877V226.111L45.7869 228.2L49.4566 226.111V221.877L45.7869 219.732L42.1172 221.877Z" fill="#7F868E"/>
<path d="M75.8789 236.161V238.532L77.9114 239.718L80.0003 238.532V236.161L77.9114 234.975L75.8789 236.161Z" fill="#7F868E"/>
<path d="M24.3896 197.149V200.706L27.4383 202.456L30.5435 200.706V197.149L27.4383 195.342L24.3896 197.149Z" fill="#7F868E"/>
<path d="M21.9057 203.246L19.6474 201.948L17.3892 203.246V205.787L19.6474 207.085L21.9057 205.787V203.246Z" fill="#7F868E"/>
<path d="M25.1797 228.821V231.814L27.7767 233.338L30.3738 231.814V228.821L27.7767 227.297L25.1797 228.821Z" fill="#7F868E"/>
<path d="M22.9783 237.234L18.8569 239.605V240H27.0997V239.605L22.9783 237.234Z" fill="#7F868E"/>
<path d="M22.9783 166.775L27.0997 164.347V160H18.8569V164.347L22.9783 166.775Z" fill="#7F868E"/>
<path d="M48.1578 176.598V174.848L46.6334 174.001L45.1655 174.848V176.598L46.6334 177.445L48.1578 176.598Z" fill="#7F868E"/>
<path d="M64.7002 221.595V226.111L68.5957 228.37L72.4913 226.111V221.595L68.5957 219.336L64.7002 221.595Z" fill="#7F868E"/>
<path d="M80 240H0V320H80V240Z" fill="#373D44"/>
<path d="M1.35497 240H0V242.653H2.70994L1.35497 240Z" fill="#7F868E"/>
<path d="M9.37223 242.653L8.01724 240H5.36376L4.00879 242.653H9.37223Z" fill="#7F868E"/>
<path d="M16.0339 242.653L14.6789 240H12.0254L10.6704 242.653H16.0339Z" fill="#7F868E"/>
<path d="M22.6955 242.653L21.3405 240H18.687L17.332 242.653H22.6955Z" fill="#7F868E"/>
<path d="M29.3581 242.653L28.0031 240H25.3496L23.9946 242.653H29.3581Z" fill="#7F868E"/>
<path d="M36.0197 242.653L34.6647 240H32.0112L30.6562 242.653H36.0197Z" fill="#7F868E"/>
<path d="M42.682 242.653L41.327 240H38.6735L37.375 242.653H42.682Z" fill="#7F868E"/>
<path d="M49.3436 242.653L47.9886 240H45.3351L44.0366 242.653H49.3436Z" fill="#7F868E"/>
<path d="M56.0052 242.653L54.6503 240H51.9968L50.6982 242.653H56.0052Z" fill="#7F868E"/>
<path d="M62.6678 242.653L61.3693 240H58.6594L57.3608 242.653H62.6678Z" fill="#7F868E"/>
<path d="M69.3294 242.653L68.0309 240H65.321L64.0225 242.653H69.3294Z" fill="#7F868E"/>
<path d="M75.9921 242.653L74.6935 240H71.9836L70.6851 242.653H75.9921Z" fill="#7F868E"/>
<path d="M79.9997 242.653V240H78.6447L77.3462 242.653H79.9997Z" fill="#7F868E"/>
<path d="M3.33075 244.008L0.677246 249.315H6.04069L3.33075 244.008Z" fill="#7F868E"/>
<path d="M10.0498 244.008L7.33984 249.315H12.7033L10.0498 244.008Z" fill="#7F868E"/>
<path d="M16.7109 244.008L14.001 249.315H19.3644L16.7109 244.008Z" fill="#7F868E"/>
<path d="M23.373 244.008L20.6631 249.315H26.0265L23.373 244.008Z" fill="#7F868E"/>
<path d="M30.0351 244.008L27.3252 249.315H32.6886L30.0351 244.008Z" fill="#7F868E"/>
<path d="M36.6974 244.008L34.0439 249.315H39.3509L36.6974 244.008Z" fill="#7F868E"/>
<path d="M43.359 244.008L40.7056 249.315H46.0125L43.359 244.008Z" fill="#7F868E"/>
<path d="M50.0217 244.008L47.3682 249.315H52.6751L50.0217 244.008Z" fill="#7F868E"/>
<path d="M56.6833 244.008L54.0298 249.315H59.3368L56.6833 244.008Z" fill="#7F868E"/>
<path d="M63.3449 244.008L60.6914 249.315H65.9984L63.3449 244.008Z" fill="#7F868E"/>
<path d="M70.0075 244.008L67.354 249.315H72.661L70.0075 244.008Z" fill="#7F868E"/>
<path d="M76.6691 244.008L74.0156 249.315H79.3226L76.6691 244.008Z" fill="#7F868E"/>
<path d="M0 250.67V255.977H2.70994L0 250.67Z" fill="#7F868E"/>
<path d="M9.37223 255.977L6.71873 250.67L4.00879 255.977H9.37223Z" fill="#7F868E"/>
<path d="M16.0339 255.977L13.3804 250.67L10.6704 255.977H16.0339Z" fill="#7F868E"/>
<path d="M22.6955 255.977L20.042 250.67L17.332 255.977H22.6955Z" fill="#7F868E"/>
<path d="M29.3581 255.977L26.7046 250.67L23.9946 255.977H29.3581Z" fill="#7F868E"/>
<path d="M36.0197 255.977L33.3662 250.67L30.6562 255.977H36.0197Z" fill="#7F868E"/>
<path d="M42.682 255.977L40.0285 250.67L37.375 255.977H42.682Z" fill="#7F868E"/>
<path d="M49.3436 255.977L46.6901 250.67L44.0366 255.977H49.3436Z" fill="#7F868E"/>
<path d="M56.0052 255.977L53.3517 250.67L50.6982 255.977H56.0052Z" fill="#7F868E"/>
<path d="M62.6678 255.977L60.0143 250.67L57.3608 255.977H62.6678Z" fill="#7F868E"/>
<path d="M69.3294 255.977L66.676 250.67L64.0225 255.977H69.3294Z" fill="#7F868E"/>
<path d="M75.9921 255.977L73.3386 250.67L70.6851 255.977H75.9921Z" fill="#7F868E"/>
<path d="M79.9997 255.977V250.67L77.3462 255.977H79.9997Z" fill="#7F868E"/>
<path d="M3.33075 257.333L0.677246 262.64H6.04069L3.33075 257.333Z" fill="#7F868E"/>
<path d="M7.33984 262.64H12.7033L10.0498 257.333L7.33984 262.64Z" fill="#7F868E"/>
<path d="M14.001 262.64H19.3644L16.7109 257.333L14.001 262.64Z" fill="#7F868E"/>
<path d="M20.6631 262.64H26.0265L23.373 257.333L20.6631 262.64Z" fill="#7F868E"/>
<path d="M27.3252 262.64H32.6886L30.0351 257.333L27.3252 262.64Z" fill="#7F868E"/>
<path d="M34.0439 262.64H39.3509L36.6974 257.333L34.0439 262.64Z" fill="#7F868E"/>
<path d="M40.7056 262.64H46.0125L43.359 257.333L40.7056 262.64Z" fill="#7F868E"/>
<path d="M47.3682 262.64H52.6751L50.0217 257.333L47.3682 262.64Z" fill="#7F868E"/>
<path d="M54.0298 262.64H59.3368L56.6833 257.333L54.0298 262.64Z" fill="#7F868E"/>
<path d="M60.6914 262.64H65.9984L63.3449 257.333L60.6914 262.64Z" fill="#7F868E"/>
<path d="M67.354 262.64H72.661L70.0075 257.333L67.354 262.64Z" fill="#7F868E"/>
<path d="M74.0156 262.64H79.3226L76.6691 257.333L74.0156 262.64Z" fill="#7F868E"/>
<path d="M0 263.994V269.301H2.70994L0 263.994Z" fill="#7F868E"/>
<path d="M4.00879 269.301H9.37223L6.71873 263.994L4.00879 269.301Z" fill="#7F868E"/>
<path d="M10.6704 269.301H16.0339L13.3804 263.994L10.6704 269.301Z" fill="#7F868E"/>
<path d="M17.332 269.301H22.6955L20.042 263.994L17.332 269.301Z" fill="#7F868E"/>
<path d="M23.9946 269.301H29.3581L26.7046 263.994L23.9946 269.301Z" fill="#7F868E"/>
<path d="M30.6562 269.301H36.0197L33.3662 263.994L30.6562 269.301Z" fill="#7F868E"/>
<path d="M37.375 269.301H42.682L40.0285 263.994L37.375 269.301Z" fill="#7F868E"/>
<path d="M44.0366 269.301H49.3436L46.6901 263.994L44.0366 269.301Z" fill="#7F868E"/>
<path d="M50.6982 269.301H56.0052L53.3517 263.994L50.6982 269.301Z" fill="#7F868E"/>
<path d="M57.3608 269.301H62.6678L60.0143 263.994L57.3608 269.301Z" fill="#7F868E"/>
<path d="M64.0225 269.301H69.3294L66.676 263.994L64.0225 269.301Z" fill="#7F868E"/>
<path d="M73.3386 263.994L70.6851 269.301H75.9921L73.3386 263.994Z" fill="#7F868E"/>
<path d="M79.9997 269.301V263.994L77.3462 269.301H79.9997Z" fill="#7F868E"/>
<path d="M3.33075 270.656L0.677246 275.963H6.04069L3.33075 270.656Z" fill="#7F868E"/>
<path d="M7.33984 275.963H12.7033L10.0498 270.656L7.33984 275.963Z" fill="#7F868E"/>
<path d="M14.001 275.963H19.3644L16.7109 270.656L14.001 275.963Z" fill="#7F868E"/>
<path d="M20.6631 275.963H26.0265L23.373 270.656L20.6631 275.963Z" fill="#7F868E"/>
<path d="M27.3252 275.963H32.6886L30.0351 270.656L27.3252 275.963Z" fill="#7F868E"/>
<path d="M34.0439 275.963H39.3509L36.6974 270.656L34.0439 275.963Z" fill="#7F868E"/>
<path d="M40.7056 275.963H46.0125L43.359 270.656L40.7056 275.963Z" fill="#7F868E"/>
<path d="M47.3682 275.963H52.6751L50.0217 270.656L47.3682 275.963Z" fill="#7F868E"/>
<path d="M54.0298 275.963H59.3368L56.6833 270.656L54.0298 275.963Z" fill="#7F868E"/>
<path d="M60.6914 275.963H65.9984L63.3449 270.656L60.6914 275.963Z" fill="#7F868E"/>
<path d="M70.0075 270.656L67.354 275.963H72.661L70.0075 270.656Z" fill="#7F868E"/>
<path d="M74.0156 275.963H79.3226L76.6691 270.656L74.0156 275.963Z" fill="#7F868E"/>
<path d="M0 277.318V282.625H2.70994L0 277.318Z" fill="#7F868E"/>
<path d="M9.37223 282.625L6.71873 277.318L4.00879 282.625H9.37223Z" fill="#7F868E"/>
<path d="M10.6704 282.625H16.0339L13.3804 277.318L10.6704 282.625Z" fill="#7F868E"/>
<path d="M17.332 282.625H22.6955L20.042 277.318L17.332 282.625Z" fill="#7F868E"/>
<path d="M23.9946 282.625H29.3581L26.7046 277.318L23.9946 282.625Z" fill="#7F868E"/>
<path d="M30.6562 282.625H36.0197L33.3662 277.318L30.6562 282.625Z" fill="#7F868E"/>
<path d="M37.375 282.625H42.682L40.0285 277.318L37.375 282.625Z" fill="#7F868E"/>
<path d="M44.0366 282.625H49.3436L46.6901 277.318L44.0366 282.625Z" fill="#7F868E"/>
<path d="M50.6982 282.625H56.0052L53.3517 277.318L50.6982 282.625Z" fill="#7F868E"/>
<path d="M57.3608 282.625H62.6678L60.0143 277.318L57.3608 282.625Z" fill="#7F868E"/>
<path d="M64.0225 282.625H69.3294L66.676 277.318L64.0225 282.625Z" fill="#7F868E"/>
<path d="M73.3386 277.318L70.6851 282.625H75.9921L73.3386 277.318Z" fill="#7F868E"/>
<path d="M79.9997 282.625V277.318L77.3462 282.625H79.9997Z" fill="#7F868E"/>
<path d="M3.33075 283.98L0.677246 289.287H6.04069L3.33075 283.98Z" fill="#7F868E"/>
<path d="M12.7033 289.287L10.0498 283.98L7.33984 289.287H12.7033Z" fill="#7F868E"/>
<path d="M14.001 289.287H19.3644L16.7109 283.98L14.001 289.287Z" fill="#7F868E"/>
<path d="M20.6631 289.287H26.0265L23.373 283.98L20.6631 289.287Z" fill="#7F868E"/>
<path d="M27.3252 289.287H32.6886L30.0351 283.98L27.3252 289.287Z" fill="#7F868E"/>
<path d="M34.0439 289.287H39.3509L36.6974 283.98L34.0439 289.287Z" fill="#7F868E"/>
<path d="M40.7056 289.287H46.0125L43.359 283.98L40.7056 289.287Z" fill="#7F868E"/>
<path d="M47.3682 289.287H52.6751L50.0217 283.98L47.3682 289.287Z" fill="#7F868E"/>
<path d="M54.0298 289.287H59.3368L56.6833 283.98L54.0298 289.287Z" fill="#7F868E"/>
<path d="M60.6914 289.287H65.9984L63.3449 283.98L60.6914 289.287Z" fill="#7F868E"/>
<path d="M72.661 289.287L70.0075 283.98L67.354 289.287H72.661Z" fill="#7F868E"/>
<path d="M74.0156 289.287H79.3226L76.6691 283.98L74.0156 289.287Z" fill="#7F868E"/>
<path d="M0 290.642V296.006H2.70994L0 290.642Z" fill="#7F868E"/>
<path d="M9.37223 296.006L6.71873 290.642L4.00879 296.006H9.37223Z" fill="#7F868E"/>
<path d="M13.3804 290.642L10.6704 296.006H16.0339L13.3804 290.642Z" fill="#7F868E"/>
<path d="M20.042 290.642L17.332 296.006H22.6955L20.042 290.642Z" fill="#7F868E"/>
<path d="M26.7046 290.642L23.9946 296.006H29.3581L26.7046 290.642Z" fill="#7F868E"/>
<path d="M33.3662 290.642L30.6562 296.006H36.0197L33.3662 290.642Z" fill="#7F868E"/>
<path d="M40.0285 290.642L37.375 296.006H42.682L40.0285 290.642Z" fill="#7F868E"/>
<path d="M46.6901 290.642L44.0366 296.006H49.3436L46.6901 290.642Z" fill="#7F868E"/>
<path d="M53.3517 290.642L50.6982 296.006H56.0052L53.3517 290.642Z" fill="#7F868E"/>
<path d="M60.0143 290.642L57.3608 296.006H62.6678L60.0143 290.642Z" fill="#7F868E"/>
<path d="M66.676 290.642L64.0225 296.006H69.3294L66.676 290.642Z" fill="#7F868E"/>
<path d="M73.3386 290.642L70.6851 296.006H75.9921L73.3386 290.642Z" fill="#7F868E"/>
<path d="M79.9997 296.006V290.642L77.3462 296.006H79.9997Z" fill="#7F868E"/>
<path d="M3.33075 297.304L0.677246 302.668H6.04069L3.33075 297.304Z" fill="#7F868E"/>
<path d="M7.33984 302.668H12.7033L10.0498 297.304L7.33984 302.668Z" fill="#7F868E"/>
<path d="M16.7109 297.304L14.001 302.668H19.3644L16.7109 297.304Z" fill="#7F868E"/>
<path d="M23.373 297.304L20.6631 302.668H26.0265L23.373 297.304Z" fill="#7F868E"/>
<path d="M30.0351 297.304L27.3252 302.668H32.6886L30.0351 297.304Z" fill="#7F868E"/>
<path d="M36.6974 297.304L34.0439 302.668H39.3509L36.6974 297.304Z" fill="#7F868E"/>
<path d="M43.359 297.304L40.7056 302.668H46.0125L43.359 297.304Z" fill="#7F868E"/>
<path d="M50.0217 297.304L47.3682 302.668H52.6751L50.0217 297.304Z" fill="#7F868E"/>
<path d="M56.6833 297.304L54.0298 302.668H59.3368L56.6833 297.304Z" fill="#7F868E"/>
<path d="M63.3449 297.304L60.6914 302.668H65.9984L63.3449 297.304Z" fill="#7F868E"/>
<path d="M70.0075 297.304L67.354 302.668H72.661L70.0075 297.304Z" fill="#7F868E"/>
<path d="M74.0156 302.668H79.3226L76.6691 297.304L74.0156 302.668Z" fill="#7F868E"/>
<path d="M0 303.966V309.33H2.70994L0 303.966Z" fill="#7F868E"/>
<path d="M9.37223 309.33L6.71873 303.966L4.00879 309.33H9.37223Z" fill="#7F868E"/>
<path d="M13.3804 303.966L10.6704 309.33H16.0339L13.3804 303.966Z" fill="#7F868E"/>
<path d="M20.042 303.966L17.332 309.33H22.6955L20.042 303.966Z" fill="#7F868E"/>
<path d="M26.7046 303.966L23.9946 309.33H29.3581L26.7046 303.966Z" fill="#7F868E"/>
<path d="M33.3662 303.966L30.6562 309.33H36.0197L33.3662 303.966Z" fill="#7F868E"/>
<path d="M40.0285 303.966L37.375 309.33H42.682L40.0285 303.966Z" fill="#7F868E"/>
<path d="M46.6901 303.966L44.0366 309.33H49.3436L46.6901 303.966Z" fill="#7F868E"/>
<path d="M53.3517 303.966L50.6982 309.33H56.0052L53.3517 303.966Z" fill="#7F868E"/>
<path d="M60.0143 303.966L57.3608 309.33H62.6678L60.0143 303.966Z" fill="#7F868E"/>
<path d="M66.676 303.966L64.0225 309.33H69.3294L66.676 303.966Z" fill="#7F868E"/>
<path d="M73.3386 303.966L70.6851 309.33H75.9921L73.3386 303.966Z" fill="#7F868E"/>
<path d="M79.9997 309.33V303.966L77.3462 309.33H79.9997Z" fill="#7F868E"/>
<path d="M3.33075 310.628L0.677246 315.991H6.04069L3.33075 310.628Z" fill="#7F868E"/>
<path d="M7.33984 315.991H12.7033L10.0498 310.628L7.33984 315.991Z" fill="#7F868E"/>
<path d="M14.001 315.991H19.3644L16.7109 310.628L14.001 315.991Z" fill="#7F868E"/>
<path d="M20.6631 315.991H26.0265L23.373 310.628L20.6631 315.991Z" fill="#7F868E"/>
<path d="M27.3252 315.991H32.6886L30.0351 310.628L27.3252 315.991Z" fill="#7F868E"/>
<path d="M34.0439 315.991H39.3509L36.6974 310.628L34.0439 315.991Z" fill="#7F868E"/>
<path d="M40.7056 315.991H46.0125L43.359 310.628L40.7056 315.991Z" fill="#7F868E"/>
<path d="M47.3682 315.991H52.6751L50.0217 310.628L47.3682 315.991Z" fill="#7F868E"/>
<path d="M54.0298 315.991H59.3368L56.6833 310.628L54.0298 315.991Z" fill="#7F868E"/>
<path d="M60.6914 315.991H65.9984L63.3449 310.628L60.6914 315.991Z" fill="#7F868E"/>
<path d="M67.354 315.991H72.661L70.0075 310.628L67.354 315.991Z" fill="#7F868E"/>
<path d="M74.0156 315.991H79.3226L76.6691 310.628L74.0156 315.991Z" fill="#7F868E"/>
<path d="M0 317.29V320H1.35497L0 317.29Z" fill="#7F868E"/>
<path d="M5.36328 320H8.01676L6.71825 317.29L5.36328 320Z" fill="#7F868E"/>
<path d="M12.0259 320H14.6794L13.3809 317.29L12.0259 320Z" fill="#7F868E"/>
<path d="M18.6875 320H21.341L20.0425 317.29L18.6875 320Z" fill="#7F868E"/>
<path d="M25.3491 320H28.0026L26.7041 317.29L25.3491 320Z" fill="#7F868E"/>
<path d="M32.0117 320H34.6652L33.3667 317.29L32.0117 320Z" fill="#7F868E"/>
<path d="M38.6733 320H41.3268L40.0283 317.29L38.6733 320Z" fill="#7F868E"/>
<path d="M45.335 320H47.9885L46.6899 317.29L45.335 320Z" fill="#7F868E"/>
<path d="M51.9971 320H54.6506L53.352 317.29L51.9971 320Z" fill="#7F868E"/>
<path d="M58.6592 320H61.3691L60.0142 317.29L58.6592 320Z" fill="#7F868E"/>
<path d="M65.3218 320H68.0317L66.6768 317.29L65.3218 320Z" fill="#7F868E"/>
<path d="M71.9829 320H74.6929L73.3379 317.29L71.9829 320Z" fill="#7F868E"/>
<path d="M80.0005 320V317.29L78.6455 320H80.0005Z" fill="#7F868E"/>
<path d="M79.9433 320.226H0.0561523V400H79.9433V320.226Z" fill="#373D44"/>
<path d="M73.9069 320H72.5529L66.5727 323.441L60.5924 320H59.2384L53.2581 323.441L47.2779 320H45.9239L39.9436 323.441L33.9633 320H32.6093L26.6291 323.498L20.6488 320.056H19.2948L13.3146 323.498L7.33428 320.056H5.98028L0 323.498V332.976V333.766V343.244L5.98028 346.685L0 350.127V359.605V360.395V369.873L5.98028 373.315L0 376.756V386.234V387.024V396.502L5.98028 399.944H7.33428L13.3146 396.502L19.2948 399.944H20.6488L26.6291 396.502L32.6093 399.944H33.9633L39.9436 396.502L45.9239 399.944H47.2779L53.2581 396.502L59.2384 399.944H60.5924L66.5727 396.502L72.5529 399.944H73.9069L79.8872 396.502V387.024V386.234V376.756L73.9069 373.315L79.8872 369.873V360.395V359.605V350.127L73.9069 346.685L79.8872 343.244V333.766V332.976V323.498L73.9069 320ZM79.6051 324.062V332.75L73.6249 329.309V320.621L79.6051 324.062ZM67.2497 386.629L73.2299 383.188L79.2102 386.629L73.2299 390.071L67.2497 386.629ZM53.9352 386.629L59.9154 383.188L65.8956 386.629L59.9154 390.071L53.9352 386.629ZM40.6206 386.629L46.6009 383.188L52.5811 386.629L46.6009 390.071L40.6206 386.629ZM27.3061 386.629L33.2863 383.188L39.2666 386.629L33.2863 390.071L27.3061 386.629ZM13.9351 386.629L19.9154 383.188L25.8957 386.629L19.9154 390.071L13.9351 386.629ZM0.620613 386.629L6.60086 383.188L12.5811 386.629L6.60086 390.071L0.620613 386.629ZM6.65726 356.502L12.6375 359.944L6.65726 363.385L0.677017 359.944L6.65726 356.502ZM6.65726 329.873L12.6375 333.315L6.65726 336.756L0.677017 333.315L6.65726 329.873ZM19.9718 329.873L25.9521 333.315L19.9718 336.756L13.9915 333.315L19.9718 329.873ZM33.2863 329.873L39.2666 333.315L33.2863 336.756L27.3061 333.315L33.2863 329.873ZM46.6009 329.873L52.5811 333.315L46.6009 336.756L40.6206 333.315L46.6009 329.873ZM59.9154 329.873L65.8956 333.315L59.9154 336.756L53.9352 333.315L59.9154 329.873ZM72.9478 355.938L66.9676 359.379V350.691L72.9478 347.25V355.938ZM72.9478 382.623L66.9676 386.065V377.377L72.9478 373.935V382.623ZM59.6333 382.623L53.6531 386.065V377.377L59.6333 373.935V382.623ZM46.2624 382.623L40.2821 386.065V377.377L46.2624 373.935V382.623ZM32.9478 382.623L26.9676 386.065V377.377L32.9478 373.935V382.623ZM19.6333 382.623L13.653 386.065V377.377L19.6333 373.935V382.623ZM6.93935 373.879L12.9196 377.32V386.008L6.93935 382.567V373.879ZM6.93935 347.25L12.9196 350.691V359.379L6.93935 355.938V347.25ZM66.2906 369.252L60.3103 372.694V364.006L66.2906 360.564V369.252ZM52.9196 369.252L46.9394 372.694V364.006L52.9196 360.564V369.252ZM39.6051 369.252L33.6249 372.694V364.006L39.6051 360.564V369.252ZM26.2906 369.252L20.3103 372.694V364.006L26.2906 360.564V369.252ZM53.9352 360L59.9154 356.559L65.8956 360L59.9154 363.441L53.9352 360ZM66.2906 359.436L60.3103 355.994V347.306L66.2906 350.748V359.436ZM59.6333 355.938L53.6531 359.379V350.691L59.6333 347.25V355.938ZM40.6206 360L46.6009 356.559L52.5811 360L46.6009 363.441L40.6206 360ZM52.9196 359.436L46.9394 355.994V347.306L52.9196 350.748V359.436ZM46.2624 355.938L40.2821 359.379V350.691L46.2624 347.25V355.938ZM27.3061 360L33.2863 356.559L39.2666 360L33.2863 363.441L27.3061 360ZM39.6051 359.436L33.6249 355.994V347.306L39.6051 350.748V359.436ZM32.9478 355.938L26.9676 359.379V350.691L32.9478 347.25V355.938ZM13.9351 360L19.9154 356.559L25.8957 360L19.9154 363.441L13.9351 360ZM26.2906 359.436L20.3103 355.994V347.306L26.2906 350.748V359.436ZM19.6333 355.938L13.653 359.379V350.691L19.6333 347.25V355.938ZM13.653 360.564L19.6333 364.006V372.694L13.653 369.252V360.564ZM26.9676 360.564L32.9478 364.006V372.694L26.9676 369.252V360.564ZM40.2821 360.564L46.2624 364.006V372.694L40.2821 369.252V360.564ZM53.5966 360.564L59.5769 364.006V372.694L53.5966 369.252V360.564ZM60.5924 346.685L66.5727 343.244L72.5529 346.685L66.5727 350.127L60.5924 346.685ZM66.2906 342.623L60.3103 346.065V337.377L66.2906 333.935V342.623ZM53.2581 350.127L47.2779 346.685L53.2581 343.244L59.2384 346.685L53.2581 350.127ZM52.9196 342.623L46.9394 346.065V337.377L52.9196 333.935V342.623ZM39.9436 350.127L33.9633 346.685L39.9436 343.244L45.9239 346.685L39.9436 350.127ZM39.6051 342.623L33.6249 346.065V337.377L39.6051 333.935V342.623ZM26.6291 350.127L20.6488 346.685L26.6291 343.244L32.6093 346.685L26.6291 350.127ZM26.2906 342.623L20.3103 346.065V337.377L26.2906 333.935V342.623ZM13.3146 350.127L7.33428 346.685L13.3146 343.244L19.2948 346.685L13.3146 350.127ZM12.976 342.623L6.99579 346.065V337.377L12.976 333.935V342.623ZM12.976 369.252L6.99579 372.694V364.006L12.976 360.564V369.252ZM7.27787 373.315L13.2581 369.873L19.2384 373.315L13.2581 376.756L7.27787 373.315ZM20.3103 373.879L26.2906 377.32V386.008L20.3103 382.567V373.879ZM20.6488 373.315L26.6291 369.873L32.6093 373.315L26.6291 376.756L20.6488 373.315ZM33.6249 373.879L39.6051 377.32V386.008L33.6249 382.567V373.879ZM33.9633 373.315L39.9436 369.873L45.9239 373.315L39.9436 376.756L33.9633 373.315ZM46.9394 373.879L52.9196 377.32V386.008L46.9394 382.567V373.879ZM47.2779 373.315L53.2581 369.873L59.2384 373.315L53.2581 376.756L47.2779 373.315ZM60.2539 373.879L66.2342 377.32V386.008L60.2539 382.567V373.879ZM60.5924 373.315L66.5727 369.873L72.5529 373.315L66.5727 376.756L60.5924 373.315ZM72.9478 372.75L66.9676 369.309V360.621L72.9478 364.062V372.75ZM72.9478 346.065L66.9676 342.623V333.935L72.9478 337.377V346.065ZM59.6333 337.377V346.065L53.6531 342.623V333.935L59.6333 337.377ZM46.2624 337.377V346.065L40.2821 342.623V333.935L46.2624 337.377ZM32.9478 337.377V346.065L26.9676 342.623V333.935L32.9478 337.377ZM19.6333 337.377V346.065L13.653 342.623V333.935L19.6333 337.377ZM67.2497 360L73.2299 356.559L79.2102 360L73.2299 363.441L67.2497 360ZM67.2497 333.315L73.2299 329.873L79.2102 333.315L73.2299 336.756L67.2497 333.315ZM66.9112 324.062L72.8914 320.621V329.309L66.9112 332.75V324.062ZM66.2906 324.062V332.75L60.3103 329.309V320.621L66.2906 324.062ZM53.5966 324.062L59.5769 320.621V329.309L53.5966 332.75V324.062ZM52.9196 324.062V332.75L46.9394 329.309V320.621L52.9196 324.062ZM40.2821 324.062L46.2624 320.621V329.309L40.2821 332.75V324.062ZM39.6051 324.062V332.75L33.6249 329.309V320.621L39.6051 324.062ZM26.9676 324.062L32.9478 320.621V329.309L26.9676 332.75V324.062ZM26.2906 324.062V332.75L20.3103 329.309V320.621L26.2906 324.062ZM13.653 324.062L19.6333 320.621V329.309L13.653 332.75V324.062ZM12.976 324.062V332.75L6.99579 329.309V320.621L12.976 324.062ZM0.282088 324.062L6.26236 320.621V329.309L0.282088 332.75V324.062ZM0.282088 342.623V333.935L6.26236 337.377V346.065L0.282088 342.623ZM0.282088 350.691L6.26236 347.25V355.938L0.282088 359.379V350.691ZM0.282088 369.252V360.564L6.26236 364.006V372.694L0.282088 369.252ZM0.282088 377.377L6.26236 373.935V382.623L0.282088 386.065V377.377ZM0.282088 395.938V387.25L6.26236 390.691V399.379L0.282088 395.938ZM6.93935 399.379V390.691L12.9196 387.25V395.938L6.93935 399.379ZM13.653 395.938V387.25L19.6333 390.691V399.379L13.653 395.938ZM20.3103 399.379V390.691L26.2906 387.25V395.938L20.3103 399.379ZM26.9676 395.938V387.25L32.9478 390.691V399.379L26.9676 395.938ZM33.6249 399.379V390.691L39.6051 387.25V395.938L33.6249 399.379ZM40.2821 395.938V387.25L46.2624 390.691V399.379L40.2821 395.938ZM46.9394 399.379V390.691L52.9196 387.25V395.938L46.9394 399.379ZM53.5966 395.938V387.25L59.5769 390.691V399.379L53.5966 395.938ZM60.2539 399.379V390.691L66.2342 387.25V395.938L60.2539 399.379ZM66.9112 395.938V387.25L72.8914 390.691V399.379L66.9112 395.938ZM79.6051 395.938L73.6249 399.379V390.691L79.6051 387.25V395.938ZM79.6051 377.377V386.065L73.6249 382.623V373.935L79.6051 377.377ZM79.6051 369.252L73.6249 372.694V364.006L79.6051 360.564V369.252ZM79.6051 350.691V359.379L73.6249 355.938V347.25L79.6051 350.691ZM79.6051 342.623L73.6249 346.065V337.377L79.6051 333.935V342.623Z" fill="#7F868E"/>
</g>
</svg>
