<svg id="Слой_1" data-name="Слой 1" xmlns="http://www.w3.org/2000/svg" viewBox="0 0 314 379"><defs><style>.cls-1{fill:#553c8b;}.cls-2{fill:#7763a2;}</style></defs><path class="cls-1" d="M157-.33H0v157H157Z"/><path class="cls-2" d="M145.15-.33h-2.66L130.74,6.43,119-.33h-2.66L104.59,6.43,92.85-.33H90.19L78.44,6.43,66.7-.33H64L52.3,6.54,40.55-.22H37.89L26.15,6.54,14.4-.22H11.74L0,6.54V45.29L11.74,52,0,58.8V97.55l11.74,6.75L0,111.06v38.75l11.74,6.75H14.4l11.75-6.75,11.74,6.75h2.66l11.75-6.75L64,156.56H66.7l11.74-6.75,11.75,6.75h2.66l11.74-6.75,11.75,6.75H119l11.74-6.75,11.75,6.75h2.66l11.74-6.75V111.06l-11.74-6.76,11.74-6.75V58.8L145.15,52l11.74-6.75V6.54Zm11.19,8V24.69l-11.75-6.75V.89ZM132.07,130.43l11.75-6.75,11.74,6.75-11.74,6.76Zm-26.15,0,11.75-6.75,11.74,6.75-11.74,6.76Zm-26.15,0,11.75-6.75,11.74,6.75-11.74,6.76Zm-26.14,0,11.74-6.75,11.75,6.75-11.75,6.76Zm-26.26,0,11.74-6.75,11.75,6.75-11.75,6.76Zm-26.15,0L13,123.68l11.75,6.75L13,137.19ZM13.07,71.31l11.75,6.75L13.07,84.81,1.33,78.06Zm0-52.26L24.82,25.8,13.07,32.56,1.33,25.8Zm26.15,0L51,25.8,39.22,32.56,27.48,25.8Zm26.15,0L77.12,25.8,65.37,32.56,53.63,25.8Zm26.15,0,11.74,6.75L91.52,32.56,79.77,25.8Zm26.15,0,11.74,6.75-11.74,6.76L105.92,25.8ZM143.26,70.2,131.52,77V59.9l11.74-6.75Zm0,52.37-11.74,6.75v-17l11.74-6.75Zm-26.15,0-11.74,6.75v-17l11.74-6.75Zm-26.26,0-11.74,6.75v-17l11.74-6.75Zm-26.14,0L53,129.32v-17l11.75-6.75Zm-26.15,0-11.75,6.75v-17l11.75-6.75ZM13.63,105.41l11.74,6.75v17.05l-11.74-6.75Zm0-52.26L25.37,59.9V77L13.63,70.2ZM130.19,96.33l-11.75,6.75V86l11.75-6.75Zm-26.26,0-11.75,6.75V86l11.75-6.75Zm-26.15,0L66,103.08V86l11.74-6.75Zm-26.15,0-11.74,6.75V86l11.74-6.75Zm54.29-18.16,11.75-6.75,11.74,6.75-11.74,6.76Zm24.27-1.11-11.75-6.75V53.26L130.19,60ZM117.11,70.2,105.37,77V59.9l11.74-6.75Zm-37.34,8,11.75-6.75,11.74,6.75L91.52,84.93Zm24.16-1.11L92.18,70.31V53.26L103.93,60ZM90.85,70.2,79.11,77V59.9l11.74-6.75Zm-37.22,8,11.74-6.75,11.75,6.75L65.37,84.93Zm24.15-1.11L66,70.31V53.26L77.78,60ZM64.71,70.2,53,77V59.9l11.75-6.75Zm-37.34,8,11.74-6.75,11.75,6.75L39.11,84.93Zm24.26-1.11L39.89,70.31V53.26L51.63,60ZM38.56,70.2,26.81,77V59.9l11.75-6.75ZM26.81,79.28,38.56,86v17L26.81,96.33Zm26.15,0L64.71,86v17L53,96.33Zm26.15,0L90.85,86v17L79.11,96.33Zm26.15,0L117,86v17l-11.74-6.75ZM119,52l11.74-6.75L142.49,52,130.74,58.8Zm11.19-8-11.75,6.75v-17L130.19,27ZM104.59,58.8,92.85,52l11.74-6.75L116.34,52Zm-.66-14.73L92.18,50.82v-17L103.93,27ZM78.44,58.8,66.7,52l11.74-6.75L90.19,52Zm-.66-14.73L66,50.82v-17L77.78,27ZM52.3,58.8,40.55,52,52.3,45.29,64,52Zm-.67-14.73L39.89,50.82v-17L51.63,27ZM26.15,58.8,14.4,52l11.75-6.75L37.89,52Zm-.67-14.73L13.74,50.82v-17L25.48,27Zm0,52.26-11.74,6.75V86l11.74-6.75Zm-11.19,8L26,97.55l11.74,6.75L26,111.06Zm25.6,1.11,11.74,6.75v17.05l-11.74-6.75Zm.66-1.11L52.3,97.55,64,104.3,52.3,111.06ZM66,105.41l11.74,6.75v17.05L66,122.46Zm.66-1.11,11.74-6.75,11.75,6.75-11.75,6.76Zm25.48,1.11,11.75,6.75v17.05l-11.75-6.75Zm.67-1.11,11.74-6.75,11.75,6.75-11.75,6.76Zm25.48,1.11,11.75,6.75v17.05l-11.75-6.75Zm.67-1.11,11.74-6.75,11.75,6.75-11.75,6.76Zm24.26-1.11-11.74-6.75v-17l11.74,6.75Zm0-52.37-11.74-6.75V27l11.74,6.75Zm-26.15-17v17l-11.74-6.75V27Zm-26.26,0v17L79.11,44.07V27Zm-26.14,0v17L53,44.07V27Zm-26.15,0v17L26.81,44.07V27Zm93.51,44.4,11.75-6.75,11.74,6.75-11.74,6.76Zm0-52.37,11.75-6.75,11.74,6.75-11.74,6.76Zm-.66-18.16L143.15.89V17.94l-11.74,6.75Zm-1.22,0V24.69l-11.75-6.75V.89Zm-24.93,0L117,.89V17.94l-11.74,6.75Zm-1.33,0V24.69L92.18,17.94V.89Zm-24.82,0L90.85.89V17.94L79.11,24.69Zm-1.33,0V24.69L66,17.94V.89ZM53,7.64,64.71.89V17.94L53,24.69Zm-1.33,0V24.69L39.89,17.94V.89Zm-24.82,0L38.56.89V17.94L26.81,24.69Zm-1.33,0V24.69L13.74,17.94V.89ZM.55,7.64,12.3.89V17.94L.55,24.69Zm0,36.43V27L12.3,33.77v17Zm0,15.83L12.3,53.15V70.2L.55,77Zm0,36.43v-17L12.3,86v17Zm0,15.94,11.75-6.75v17L.55,129.32Zm0,36.43v-17L12.3,138.4v17Zm13.08,6.75v-17l11.74-6.75v17Zm13.18-6.75v-17l11.75,6.75v17Zm13.08,6.75v-17l11.74-6.75v17ZM53,148.7v-17l11.75,6.75v17ZM66,155.45v-17l11.74-6.75v17Zm13.07-6.75v-17l11.74,6.75v17Zm13.07,6.75v-17l11.75-6.75v17Zm13.08-6.75v-17L117,138.4v17Zm13.07,6.75v-17l11.75-6.75v17Zm13.08-6.75v-17l11.74,6.75v17Zm24.93,0-11.75,6.75v-17l11.75-6.75Zm0-36.43v17l-11.75-6.75v-17Zm0-15.94-11.75,6.75V86l11.75-6.75Zm0-36.43V77L144.59,70.2V53.15Zm0-15.83-11.75,6.75v-17L156.34,27Z"/><path class="cls-2" d="M314-.33H157v157H314Z"/><path class="cls-1" d="M191.63-.33h16.93V16.5a7.93,7.93,0,0,1-8,8H183.66V7.64A7.94,7.94,0,0,1,191.63-.33Z"/><path class="cls-1" d="M183.66,43.07V26.24h16.93a7.94,7.94,0,0,1,8,8V51.05H191.63A8,8,0,0,1,183.66,43.07Z"/><path class="cls-1" d="M173.93-.33H157V16.5a7.93,7.93,0,0,0,8,8h16.92V7.64A7.93,7.93,0,0,0,173.93-.33Z"/><path class="cls-1" d="M157.11,34.22V51.05H174a8,8,0,0,0,8-8V26.24H165A7.92,7.92,0,0,0,157.11,34.22Z"/><path class="cls-1" d="M244.3-.11h16.93V16.72a7.94,7.94,0,0,1-8,8H236.33V7.86A8,8,0,0,1,244.3-.11Z"/><path class="cls-1" d="M236.33,43.29V26.47h16.93a7.94,7.94,0,0,1,8,8V51.27H244.3A8.16,8.16,0,0,1,236.33,43.29Z"/><path class="cls-1" d="M226.7-.11H209.78V16.72a7.93,7.93,0,0,0,8,8h16.93V7.86A8.08,8.08,0,0,0,226.7-.11Z"/><path class="cls-1" d="M209.78,34.44V51.27h16.93a7.94,7.94,0,0,0,8-8V26.47H217.74A7.93,7.93,0,0,0,209.78,34.44Z"/><path class="cls-1" d="M297.07-.11H314V16.72a7.93,7.93,0,0,1-8,8H289.11V7.86A7.94,7.94,0,0,1,297.07-.11Z"/><path class="cls-1" d="M289.11,43.29V26.47H306a7.93,7.93,0,0,1,8,8V51.27H297.07A8.08,8.08,0,0,1,289.11,43.29Z"/><path class="cls-1" d="M279.37-.11H262.44V16.72a7.93,7.93,0,0,0,8,8h16.92V7.86A7.93,7.93,0,0,0,279.37-.11Z"/><path class="cls-1" d="M262.44,34.44V51.27h16.93a7.93,7.93,0,0,0,8-8V26.47H270.41A8,8,0,0,0,262.44,34.44Z"/><path class="cls-1" d="M191.63,52.93h16.93V69.76a7.93,7.93,0,0,1-8,8H183.66V60.9A7.94,7.94,0,0,1,191.63,52.93Z"/><path class="cls-1" d="M183.66,96.33V79.5h16.93a7.93,7.93,0,0,1,8,8V104.3H191.63A8,8,0,0,1,183.66,96.33Z"/><path class="cls-1" d="M173.93,52.93H157V69.76a7.93,7.93,0,0,0,8,8h16.92V60.9A7.93,7.93,0,0,0,173.93,52.93Z"/><path class="cls-1" d="M157.11,87.47V104.3H174a7.94,7.94,0,0,0,8-8V79.5H165A7.91,7.91,0,0,0,157.11,87.47Z"/><path class="cls-1" d="M244.3,52.93h16.93V69.76a7.94,7.94,0,0,1-8,8H236.33V60.9A8,8,0,0,1,244.3,52.93Z"/><path class="cls-1" d="M236.33,96.33V79.5h16.93a7.94,7.94,0,0,1,8,8V104.3H244.3A8.08,8.08,0,0,1,236.33,96.33Z"/><path class="cls-1" d="M226.71,52.93H209.78V69.76a7.93,7.93,0,0,0,8,8h16.93V60.9A8.07,8.07,0,0,0,226.71,52.93Z"/><path class="cls-1" d="M209.78,87.47V104.3h16.93a7.93,7.93,0,0,0,8-8V79.5H217.74A7.93,7.93,0,0,0,209.78,87.47Z"/><path class="cls-1" d="M297.07,52.93H314V69.76a7.93,7.93,0,0,1-8,8H289.11V60.9A7.93,7.93,0,0,1,297.07,52.93Z"/><path class="cls-1" d="M289.11,96.33V79.5H306a7.93,7.93,0,0,1,8,8V104.3H297.07A8,8,0,0,1,289.11,96.33Z"/><path class="cls-1" d="M279.37,52.93H262.44V69.76a7.93,7.93,0,0,0,8,8h16.92V60.9A7.93,7.93,0,0,0,279.37,52.93Z"/><path class="cls-1" d="M262.44,87.47V104.3h16.93a7.93,7.93,0,0,0,8-8V79.5H270.41A8,8,0,0,0,262.44,87.47Z"/><path class="cls-1" d="M191.63,105.3h16.93v16.83a7.93,7.93,0,0,1-8,8H183.66V113.27A8,8,0,0,1,191.63,105.3Z"/><path class="cls-1" d="M183.66,148.7V131.87h16.93a7.93,7.93,0,0,1,8,8v16.83H191.63A7.94,7.94,0,0,1,183.66,148.7Z"/><path class="cls-1" d="M173.93,105.3H157v16.83a7.93,7.93,0,0,0,8,8h16.92V113.27A8,8,0,0,0,173.93,105.3Z"/><path class="cls-1" d="M157.11,139.84v16.83H174a7.94,7.94,0,0,0,8-8V131.87H165A7.91,7.91,0,0,0,157.11,139.84Z"/><path class="cls-1" d="M244.3,105.3h16.93v16.83a7.94,7.94,0,0,1-8,8H236.33V113.27A8.08,8.08,0,0,1,244.3,105.3Z"/><path class="cls-1" d="M236.33,148.7V131.87h16.93a7.94,7.94,0,0,1,8,8v16.83H244.3A8,8,0,0,1,236.33,148.7Z"/><path class="cls-1" d="M226.71,105.3H209.78v16.83a7.93,7.93,0,0,0,8,8h16.93V113.27A8.15,8.15,0,0,0,226.71,105.3Z"/><path class="cls-1" d="M209.78,139.84v16.83h16.93a7.93,7.93,0,0,0,8-8V131.87H217.74A7.93,7.93,0,0,0,209.78,139.84Z"/><path class="cls-1" d="M297.07,105.3H314v16.83a7.93,7.93,0,0,1-8,8H289.11V113.27A8,8,0,0,1,297.07,105.3Z"/><path class="cls-1" d="M289.11,148.7V131.87H306a7.93,7.93,0,0,1,8,8v16.83H297.07A7.93,7.93,0,0,1,289.11,148.7Z"/><path class="cls-1" d="M279.37,105.3H262.44v16.83a7.93,7.93,0,0,0,8,8h16.92V113.27A8,8,0,0,0,279.37,105.3Z"/><path class="cls-1" d="M262.44,139.84v16.83h16.93a7.93,7.93,0,0,0,8-8V131.87H270.41A8,8,0,0,0,262.44,139.84Z"/><path class="cls-1" d="M314,156.67H157v157H314Z"/><path class="cls-2" d="M159.66,156.67H157v5.21h5.32Z"/><path class="cls-2" d="M175.39,161.88l-2.66-5.21h-5.2l-2.66,5.21Z"/><path class="cls-2" d="M188.47,161.88l-2.66-5.21H180.6l-2.66,5.21Z"/><path class="cls-2" d="M201.54,161.88l-2.66-5.21h-5.21L191,161.88Z"/><path class="cls-2" d="M214.62,161.88,212,156.67h-5.21l-2.66,5.21Z"/><path class="cls-2" d="M227.69,161.88,225,156.67h-5.21l-2.66,5.21Z"/><path class="cls-2" d="M240.76,161.88l-2.66-5.21h-5.2l-2.55,5.21Z"/><path class="cls-2" d="M253.84,161.88l-2.66-5.21H246l-2.55,5.21Z"/><path class="cls-2" d="M266.91,161.88l-2.66-5.21H259l-2.54,5.21Z"/><path class="cls-2" d="M280,161.88l-2.54-5.21h-5.32l-2.55,5.21Z"/><path class="cls-2" d="M293.06,161.88l-2.55-5.21h-5.32l-2.55,5.21Z"/><path class="cls-2" d="M306.13,161.88l-2.55-5.21h-5.31l-2.55,5.21Z"/><path class="cls-2" d="M314,161.88v-5.21h-2.66l-2.55,5.21Z"/><path class="cls-2" d="M163.54,164.54,158.33,175h10.53Z"/><path class="cls-2" d="M176.72,164.54,171.4,175h10.53Z"/><path class="cls-2" d="M189.8,164.54,184.48,175H195Z"/><path class="cls-2" d="M202.87,164.54,197.55,175h10.53Z"/><path class="cls-2" d="M215.94,164.54,210.63,175h10.52Z"/><path class="cls-2" d="M229,164.54,223.81,175h10.42Z"/><path class="cls-2" d="M242.09,164.54,236.88,175H247.3Z"/><path class="cls-2" d="M255.17,164.54,250,175h10.41Z"/><path class="cls-2" d="M268.24,164.54,263,175h10.42Z"/><path class="cls-2" d="M281.32,164.54,276.11,175h10.41Z"/><path class="cls-2" d="M294.39,164.54,289.18,175H299.6Z"/><path class="cls-2" d="M307.46,164.54,302.26,175h10.41Z"/><path class="cls-2" d="M157,177.61V188h5.32Z"/><path class="cls-2" d="M175.39,188l-5.21-10.42L164.87,188Z"/><path class="cls-2" d="M188.47,188l-5.21-10.42L177.94,188Z"/><path class="cls-2" d="M201.54,188l-5.21-10.42L191,188Z"/><path class="cls-2" d="M214.62,188l-5.21-10.42L204.09,188Z"/><path class="cls-2" d="M227.69,188l-5.21-10.42L217.16,188Z"/><path class="cls-2" d="M240.76,188l-5.2-10.42L230.35,188Z"/><path class="cls-2" d="M253.84,188l-5.21-10.42L243.42,188Z"/><path class="cls-2" d="M266.91,188l-5.21-10.42L256.5,188Z"/><path class="cls-2" d="M280,188l-5.2-10.42L269.57,188Z"/><path class="cls-2" d="M293.06,188l-5.21-10.42L282.64,188Z"/><path class="cls-2" d="M306.13,188l-5.2-10.42L295.72,188Z"/><path class="cls-2" d="M314,188V177.61L308.79,188Z"/><path class="cls-2" d="M163.54,190.69l-5.21,10.41h10.53Z"/><path class="cls-2" d="M171.4,201.1h10.53l-5.21-10.41Z"/><path class="cls-2" d="M184.48,201.1H195l-5.2-10.41Z"/><path class="cls-2" d="M197.55,201.1h10.53l-5.21-10.41Z"/><path class="cls-2" d="M210.63,201.1h10.52l-5.21-10.41Z"/><path class="cls-2" d="M223.81,201.1h10.42L229,190.69Z"/><path class="cls-2" d="M236.88,201.1H247.3l-5.21-10.41Z"/><path class="cls-2" d="M250,201.1h10.41l-5.2-10.41Z"/><path class="cls-2" d="M263,201.1h10.42l-5.21-10.41Z"/><path class="cls-2" d="M276.11,201.1h10.41l-5.2-10.41Z"/><path class="cls-2" d="M289.18,201.1H299.6l-5.21-10.41Z"/><path class="cls-2" d="M302.26,201.1h10.41l-5.21-10.41Z"/><path class="cls-2" d="M157,203.76v10.42h5.32Z"/><path class="cls-2" d="M164.87,214.18h10.52l-5.21-10.42Z"/><path class="cls-2" d="M177.94,214.18h10.53l-5.21-10.42Z"/><path class="cls-2" d="M191,214.18h10.53l-5.21-10.42Z"/><path class="cls-2" d="M204.09,214.18h10.53l-5.21-10.42Z"/><path class="cls-2" d="M217.16,214.18h10.53l-5.21-10.42Z"/><path class="cls-2" d="M230.35,214.18h10.41l-5.2-10.42Z"/><path class="cls-2" d="M243.42,214.18h10.42l-5.21-10.42Z"/><path class="cls-2" d="M256.5,214.18h10.41l-5.21-10.42Z"/><path class="cls-2" d="M269.57,214.18H280l-5.2-10.42Z"/><path class="cls-2" d="M282.64,214.18h10.42l-5.21-10.42Z"/><path class="cls-2" d="M300.93,203.76l-5.21,10.42h10.41Z"/><path class="cls-2" d="M314,214.18V203.76l-5.21,10.42Z"/><path class="cls-2" d="M163.54,216.83l-5.21,10.42h10.53Z"/><path class="cls-2" d="M171.4,227.25h10.53l-5.21-10.42Z"/><path class="cls-2" d="M184.48,227.25H195l-5.2-10.42Z"/><path class="cls-2" d="M197.55,227.25h10.53l-5.21-10.42Z"/><path class="cls-2" d="M210.63,227.25h10.52l-5.21-10.42Z"/><path class="cls-2" d="M223.81,227.25h10.42L229,216.83Z"/><path class="cls-2" d="M236.88,227.25H247.3l-5.21-10.42Z"/><path class="cls-2" d="M250,227.25h10.41l-5.2-10.42Z"/><path class="cls-2" d="M263,227.25h10.42l-5.21-10.42Z"/><path class="cls-2" d="M276.11,227.25h10.41l-5.2-10.42Z"/><path class="cls-2" d="M294.39,216.83l-5.21,10.42H299.6Z"/><path class="cls-2" d="M302.26,227.25h10.41l-5.21-10.42Z"/><path class="cls-2" d="M157,229.91v10.41h5.32Z"/><path class="cls-2" d="M175.39,240.32l-5.21-10.41-5.31,10.41Z"/><path class="cls-2" d="M177.94,240.32h10.53l-5.21-10.41Z"/><path class="cls-2" d="M191,240.32h10.53l-5.21-10.41Z"/><path class="cls-2" d="M204.09,240.32h10.53l-5.21-10.41Z"/><path class="cls-2" d="M217.16,240.32h10.53l-5.21-10.41Z"/><path class="cls-2" d="M230.35,240.32h10.41l-5.2-10.41Z"/><path class="cls-2" d="M243.42,240.32h10.42l-5.21-10.41Z"/><path class="cls-2" d="M256.5,240.32h10.41l-5.21-10.41Z"/><path class="cls-2" d="M269.57,240.32H280l-5.2-10.41Z"/><path class="cls-2" d="M282.64,240.32h10.42l-5.21-10.41Z"/><path class="cls-2" d="M300.93,229.91l-5.21,10.41h10.41Z"/><path class="cls-2" d="M314,240.32V229.91l-5.21,10.41Z"/><path class="cls-2" d="M163.54,243l-5.21,10.42h10.53Z"/><path class="cls-2" d="M181.93,253.4,176.72,243,171.4,253.4Z"/><path class="cls-2" d="M184.48,253.4H195L189.8,243Z"/><path class="cls-2" d="M197.55,253.4h10.53L202.87,243Z"/><path class="cls-2" d="M210.63,253.4h10.52L215.94,243Z"/><path class="cls-2" d="M223.81,253.4h10.42L229,243Z"/><path class="cls-2" d="M236.88,253.4H247.3L242.09,243Z"/><path class="cls-2" d="M250,253.4h10.41L255.17,243Z"/><path class="cls-2" d="M263,253.4h10.42L268.24,243Z"/><path class="cls-2" d="M276.11,253.4h10.41L281.32,243Z"/><path class="cls-2" d="M299.6,253.4,294.39,243l-5.21,10.42Z"/><path class="cls-2" d="M302.26,253.4h10.41L307.46,243Z"/><path class="cls-2" d="M157,256.06v10.52h5.32Z"/><path class="cls-2" d="M175.39,266.58l-5.21-10.52-5.31,10.52Z"/><path class="cls-2" d="M183.26,256.06l-5.32,10.52h10.53Z"/><path class="cls-2" d="M196.33,256.06,191,266.58h10.53Z"/><path class="cls-2" d="M209.41,256.06l-5.32,10.52h10.53Z"/><path class="cls-2" d="M222.48,256.06l-5.32,10.52h10.53Z"/><path class="cls-2" d="M235.56,256.06l-5.21,10.52h10.41Z"/><path class="cls-2" d="M248.63,256.06l-5.21,10.52h10.42Z"/><path class="cls-2" d="M261.7,256.06l-5.2,10.52h10.41Z"/><path class="cls-2" d="M274.78,256.06l-5.21,10.52H280Z"/><path class="cls-2" d="M287.85,256.06l-5.21,10.52h10.42Z"/><path class="cls-2" d="M300.93,256.06l-5.21,10.52h10.41Z"/><path class="cls-2" d="M314,266.58V256.06l-5.21,10.52Z"/><path class="cls-2" d="M163.54,269.13l-5.21,10.53h10.53Z"/><path class="cls-2" d="M171.4,279.66h10.53l-5.21-10.53Z"/><path class="cls-2" d="M189.8,269.13l-5.32,10.53H195Z"/><path class="cls-2" d="M202.87,269.13l-5.32,10.53h10.53Z"/><path class="cls-2" d="M215.94,269.13l-5.31,10.53h10.52Z"/><path class="cls-2" d="M229,269.13l-5.21,10.53h10.42Z"/><path class="cls-2" d="M242.09,269.13l-5.21,10.53H247.3Z"/><path class="cls-2" d="M255.17,269.13,250,279.66h10.41Z"/><path class="cls-2" d="M268.24,269.13,263,279.66h10.42Z"/><path class="cls-2" d="M281.32,269.13l-5.21,10.53h10.41Z"/><path class="cls-2" d="M294.39,269.13l-5.21,10.53H299.6Z"/><path class="cls-2" d="M302.26,279.66h10.41l-5.21-10.53Z"/><path class="cls-2" d="M157,282.21v10.52h5.32Z"/><path class="cls-2" d="M175.39,292.73l-5.21-10.52-5.31,10.52Z"/><path class="cls-2" d="M183.26,282.21l-5.32,10.52h10.53Z"/><path class="cls-2" d="M196.33,282.21,191,292.73h10.53Z"/><path class="cls-2" d="M209.41,282.21l-5.32,10.52h10.53Z"/><path class="cls-2" d="M222.48,282.21l-5.32,10.52h10.53Z"/><path class="cls-2" d="M235.56,282.21l-5.21,10.52h10.41Z"/><path class="cls-2" d="M248.63,282.21l-5.21,10.52h10.42Z"/><path class="cls-2" d="M261.7,282.21l-5.2,10.52h10.41Z"/><path class="cls-2" d="M274.78,282.21l-5.21,10.52H280Z"/><path class="cls-2" d="M287.85,282.21l-5.21,10.52h10.42Z"/><path class="cls-2" d="M300.93,282.21l-5.21,10.52h10.41Z"/><path class="cls-2" d="M314,292.73V282.21l-5.21,10.52Z"/><path class="cls-2" d="M163.54,295.28l-5.21,10.52h10.53Z"/><path class="cls-2" d="M171.4,305.8h10.53l-5.21-10.52Z"/><path class="cls-2" d="M184.48,305.8H195l-5.2-10.52Z"/><path class="cls-2" d="M197.55,305.8h10.53l-5.21-10.52Z"/><path class="cls-2" d="M210.63,305.8h10.52l-5.21-10.52Z"/><path class="cls-2" d="M223.81,305.8h10.42L229,295.28Z"/><path class="cls-2" d="M236.88,305.8H247.3l-5.21-10.52Z"/><path class="cls-2" d="M250,305.8h10.41l-5.2-10.52Z"/><path class="cls-2" d="M263,305.8h10.42l-5.21-10.52Z"/><path class="cls-2" d="M276.11,305.8h10.41l-5.2-10.52Z"/><path class="cls-2" d="M289.18,305.8H299.6l-5.21-10.52Z"/><path class="cls-2" d="M302.26,305.8h10.41l-5.21-10.52Z"/><path class="cls-2" d="M157,308.35v5.32h2.66Z"/><path class="cls-2" d="M167.53,313.67h5.2l-2.55-5.32Z"/><path class="cls-2" d="M180.6,313.67h5.21l-2.55-5.32Z"/><path class="cls-2" d="M193.67,313.67h5.21l-2.55-5.32Z"/><path class="cls-2" d="M206.75,313.67H212l-2.55-5.32Z"/><path class="cls-2" d="M219.82,313.67H225l-2.55-5.32Z"/><path class="cls-2" d="M232.9,313.67h5.2l-2.55-5.32Z"/><path class="cls-2" d="M246,313.67h5.21l-2.55-5.32Z"/><path class="cls-2" d="M259.05,313.67h5.2l-2.55-5.32Z"/><path class="cls-2" d="M272.12,313.67h5.32l-2.66-5.32Z"/><path class="cls-2" d="M285.19,313.67h5.32l-2.66-5.32Z"/><path class="cls-2" d="M298.27,313.67h5.31l-2.65-5.32Z"/><path class="cls-2" d="M314,313.67v-5.32l-2.66,5.32Z"/><path class="cls-2" d="M157,156.78H0V313.67H157Z"/><path class="cls-2" d="M62.71,261H31.24L62.71,291.4Z"/><path class="cls-2" d="M31.24,261,0,291.07v22.49l31.24-30.25Z"/><path class="cls-2" d="M31.24,313.56H62.71L31.24,283.42Z"/><path class="cls-2" d="M125.42,261H93.85l31.57,30.25Z"/><path class="cls-2" d="M94,261,62.71,291.4v22.16L94,283.65Z"/><path class="cls-2" d="M94,313.67h31.46L94,283.65Z"/><path class="cls-2" d="M156.89,261l-31.47,30.25v22.38l31.47-30.25Z"/><path class="cls-2" d="M125.42,261h31.47l-31.47-30Z"/><path class="cls-2" d="M94,261.15,125.42,231V208.75L94,238.88Z"/><path class="cls-2" d="M94.07,208.86,62.71,209,94,238.88Z"/><path class="cls-2" d="M31.24,208.86H0L31.24,239Z"/><path class="cls-2" d="M62.71,156.67H31.24l31.47,30Z"/><path class="cls-2" d="M31.36,156.67,0,186.7v22.16l31.36-29.92Z"/><path class="cls-2" d="M31.24,208.86H62.71l-31.47-30Z"/><path class="cls-2" d="M94,156.67,62.71,186.59v22.27l31.36-30Z"/><path class="cls-2" d="M94.07,208.86h31.35l-31.35-30Z"/><path class="cls-2" d="M156.89,156.67l-31.47,29.92v22.27l31.47-30.14Z"/><path class="cls-1" d="M0,261H31.24L0,291.07Z"/><path class="cls-1" d="M62.6,261H94L62.71,291.4Z"/><path class="cls-1" d="M94,313.67l-31.25-.11L94,283.65Z"/><path class="cls-1" d="M156.89,261l-31.47-30V208.86L157,239Z"/><path class="cls-1" d="M94,261,62.49,231.13V208.86L94,239.1Z"/><path class="cls-1" d="M31.36,261.15,0,231V208.86l31.36,30Z"/><path class="cls-1" d="M62.49,261H31.36l31.13-30Z"/><path class="cls-1" d="M31.24,209l31.47-.11L31.24,239Z"/><path class="cls-1" d="M31.36,156.67l31.35,30-.22,22.16-31.25-30Z"/><path class="cls-2" d="M125.42,156.67H94l31.46,30Z"/><path class="cls-1" d="M156.89,208.86H125.42l31.47-30.14Z"/><path class="cls-1" d="M31.24,261.15,62.71,291.4v22.16L31.24,283.42Z"/><path class="cls-1" d="M31.36,313.67H0l31.24-30.36Z"/><path class="cls-1" d="M94,261l31.46,30.25v22.38L94,283.65Z"/><path class="cls-1" d="M125.42,261.26l31.47-.22-31.47,30.25Z"/><path class="cls-1" d="M156.89,313.67H125.42l31.47-30.36Z"/><path class="cls-2" d="M156.89,208.86H125.42L157,239Z"/><path class="cls-2" d="M62.49,261H94L62.49,231Z"/><path class="cls-1" d="M125.42,261H94l31.46-30.13Z"/><path class="cls-1" d="M94.07,208.86h31.35L94,238.88Z"/><path class="cls-2" d="M0,261H31.24L0,231Z"/><path class="cls-2" d="M31.24,261l31.25-30V208.86L31.24,238.77Z"/><path class="cls-1" d="M0,156.67H31.24L0,186.7Z"/><path class="cls-1" d="M31.24,208.86H0l31.24-30Z"/><path class="cls-1" d="M94,156.67l31.46,30V209L94,178.72Z"/><path class="cls-1" d="M62.71,156.67H94L62.71,186.59Z"/><path class="cls-1" d="M94,208.86H62.49L94,178.72Z"/><path class="cls-1" d="M125.42,156.67h31.47l-31.36,30.25Z"/><path class="cls-1" d="M157,313.67H0v157H157Z"/><path class="cls-2" d="M145.15,313.67h-2.66l-11.75,6.76L119,313.67h-2.66l-11.75,6.76-11.74-6.76H90.19l-11.75,6.76L66.7,313.67H64L52.3,320.54l-11.75-6.76H37.89l-11.74,6.76L14.4,313.78H11.74L0,320.54v38.75L11.74,366,0,372.8v38.75l11.74,6.75L0,425.06v38.75l11.74,6.75H14.4l11.75-6.75,11.74,6.75h2.66l11.75-6.75L64,470.56H66.7l11.74-6.75,11.75,6.75h2.66l11.74-6.75,11.75,6.75H119l11.74-6.75,11.75,6.75h2.66l11.74-6.75V425.06l-11.74-6.76,11.74-6.75V372.8L145.15,366l11.74-6.75V320.54Zm11.19,8v17.05l-11.75-6.75V314.89ZM132.07,444.43l11.75-6.75,11.74,6.75-11.74,6.76Zm-26.15,0,11.75-6.75,11.74,6.75-11.74,6.76Zm-26.15,0,11.75-6.75,11.74,6.75-11.74,6.76Zm-26.14,0,11.74-6.75,11.75,6.75-11.75,6.76Zm-26.26,0,11.74-6.75,11.75,6.75-11.75,6.76Zm-26.15,0L13,437.68l11.75,6.75L13,451.19Zm11.85-59.12,11.75,6.75-11.75,6.76L1.33,392.06Zm0-52.26,11.75,6.75-11.75,6.76L1.33,339.8Zm26.15,0L51,339.8l-11.75,6.76L27.48,339.8Zm26.15,0,11.75,6.75-11.75,6.76L53.63,339.8Zm26.15,0,11.74,6.75-11.74,6.76L79.77,339.8Zm26.15,0,11.74,6.75-11.74,6.76-11.75-6.76Zm25.59,51.15L131.52,391V373.9l11.74-6.75Zm0,52.37-11.74,6.75V426.27l11.74-6.75Zm-26.15,0-11.74,6.75V426.27l11.74-6.75Zm-26.26,0-11.74,6.75V426.27l11.74-6.75Zm-26.14,0L53,443.32V426.27l11.75-6.75Zm-26.15,0-11.75,6.75V426.27l11.75-6.75ZM13.63,419.41l11.74,6.75v17l-11.74-6.75Zm0-52.26,11.74,6.75V391L13.63,384.2Zm116.56,43.18-11.75,6.75V400l11.75-6.75Zm-26.26,0-11.75,6.75V400l11.75-6.75Zm-26.15,0L66,417.08V400l11.74-6.75Zm-26.15,0-11.74,6.75V400l11.74-6.75Zm54.29-18.16,11.75-6.75,11.74,6.75-11.74,6.76Zm24.27-1.11-11.75-6.75V367.26L130.19,374Zm-13.08-6.86L105.37,391V373.9l11.74-6.75Zm-37.34,8,11.75-6.75,11.74,6.75-11.74,6.76Zm24.16-1.11-11.75-6.75V367.26L103.93,374ZM90.85,384.2,79.11,391V373.9l11.74-6.75Zm-37.22,8,11.74-6.75,11.75,6.75-11.75,6.76Zm24.15-1.11L66,384.31V367.26L77.78,374ZM64.71,384.2,53,391V373.9l11.75-6.75Zm-37.34,8,11.74-6.75,11.75,6.75-11.75,6.76Zm24.26-1.11-11.74-6.75V367.26L51.63,374ZM38.56,384.2,26.81,391V373.9l11.75-6.75Zm-11.75,9.08L38.56,400v17.05l-11.75-6.75Zm26.15,0L64.71,400v17.05L53,410.33Zm26.15,0L90.85,400v17.05l-11.74-6.75Zm26.15,0L117,400v17.05l-11.74-6.75ZM119,366l11.74-6.75L142.49,366l-11.75,6.76Zm11.19-8-11.75,6.75V347.77L130.19,341Zm-25.6,14.73L92.85,366l11.74-6.75L116.34,366Zm-.66-14.73-11.75,6.75V347.77L103.93,341ZM78.44,372.8,66.7,366l11.74-6.75L90.19,366Zm-.66-14.73L66,364.82V347.77L77.78,341ZM52.3,372.8,40.55,366l11.75-6.75L64,366Zm-.67-14.73-11.74,6.75V347.77L51.63,341ZM26.15,372.8,14.4,366l11.75-6.75L37.89,366Zm-.67-14.73-11.74,6.75V347.77L25.48,341Zm0,52.26-11.74,6.75V400l11.74-6.75Zm-11.19,8L26,411.55l11.74,6.75L26,425.06Zm25.6,1.11,11.74,6.75v17l-11.74-6.75Zm.66-1.11,11.75-6.75L64,418.3,52.3,425.06ZM66,419.41l11.74,6.75v17L66,436.46Zm.66-1.11,11.74-6.75,11.75,6.75-11.75,6.76Zm25.48,1.11,11.75,6.75v17l-11.75-6.75Zm.67-1.11,11.74-6.75,11.75,6.75-11.75,6.76Zm25.48,1.11,11.75,6.75v17l-11.75-6.75Zm.67-1.11,11.74-6.75,11.75,6.75-11.75,6.76Zm24.26-1.11-11.74-6.75V393.39l11.74,6.75Zm0-52.37-11.74-6.75V341l11.74,6.75Zm-26.15-17.05v17.05l-11.74-6.75V341Zm-26.26,0v17.05l-11.74-6.75V341Zm-26.14,0v17.05L53,358.07V341Zm-26.15,0v17.05l-11.75-6.75V341Zm93.51,44.4,11.75-6.75,11.74,6.75-11.74,6.76Zm0-52.37,11.75-6.75,11.74,6.75-11.74,6.76Zm-.66-18.16,11.74-6.75v17.05l-11.74,6.75Zm-1.22,0v17.05l-11.75-6.75V314.89Zm-24.93,0L117,314.89v17.05l-11.74,6.75Zm-1.33,0v17.05l-11.75-6.75V314.89Zm-24.82,0,11.74-6.75v17.05l-11.74,6.75Zm-1.33,0v17.05L66,331.94V314.89Zm-24.82,0,11.75-6.75v17.05L53,338.69Zm-1.33,0v17.05l-11.74-6.75V314.89Zm-24.82,0,11.75-6.75v17.05l-11.75,6.75Zm-1.33,0v17.05l-11.74-6.75V314.89Zm-24.93,0,11.75-6.75v17.05L.55,338.69Zm0,36.43V341l11.75,6.75v17.05Zm0,15.83,11.75-6.75V384.2L.55,391Zm0,36.43V393.28L12.3,400v17.05Zm0,15.94,11.75-6.75v17.05L.55,443.32Zm0,36.43V445.65L12.3,452.4v17.05Zm13.08,6.75V452.4l11.74-6.75V462.7Zm13.18-6.75V445.65l11.75,6.75v17.05Zm13.08,6.75V452.4l11.74-6.75V462.7ZM53,462.7V445.65l11.75,6.75v17.05ZM66,469.45V452.4l11.74-6.75V462.7Zm13.07-6.75V445.65l11.74,6.75v17.05Zm13.07,6.75V452.4l11.75-6.75V462.7Zm13.08-6.75V445.65L117,452.4v17.05Zm13.07,6.75V452.4l11.75-6.75V462.7Zm13.08-6.75V445.65l11.74,6.75v17.05Zm24.93,0-11.75,6.75V452.4l11.75-6.75Zm0-36.43v17.05l-11.75-6.75V419.52Zm0-15.94-11.75,6.75V400l11.75-6.75Zm0-36.43V391l-11.75-6.75V367.15Zm0-15.83-11.75,6.75V347.77L156.34,341Z"/><path class="cls-2" d="M314,313.67H157v157H314Z"/><path class="cls-1" d="M191.63,313.67h16.93V330.5a7.93,7.93,0,0,1-8,8H183.66V321.64A7.94,7.94,0,0,1,191.63,313.67Z"/><path class="cls-1" d="M183.66,357.07V340.24h16.93a7.94,7.94,0,0,1,8,8v16.83H191.63A8,8,0,0,1,183.66,357.07Z"/><path class="cls-1" d="M173.93,313.67H157V330.5a7.93,7.93,0,0,0,8,8h16.92V321.64A7.93,7.93,0,0,0,173.93,313.67Z"/><path class="cls-1" d="M157.11,348.22v16.83H174a8,8,0,0,0,8-8V340.24H165A7.92,7.92,0,0,0,157.11,348.22Z"/><path class="cls-1" d="M244.3,313.89h16.93v16.83a7.94,7.94,0,0,1-8,8H236.33V321.86A8,8,0,0,1,244.3,313.89Z"/><path class="cls-1" d="M236.33,357.3V340.47h16.93a7.94,7.94,0,0,1,8,8v16.83H244.3A8.16,8.16,0,0,1,236.33,357.3Z"/><path class="cls-1" d="M226.7,313.89H209.78v16.83a7.93,7.93,0,0,0,8,8h16.93V321.86A8.08,8.08,0,0,0,226.7,313.89Z"/><path class="cls-1" d="M209.78,348.44v16.83h16.93a7.94,7.94,0,0,0,8-8V340.47H217.74A7.93,7.93,0,0,0,209.78,348.44Z"/><path class="cls-1" d="M297.07,313.89H314v16.83a7.93,7.93,0,0,1-8,8H289.11V321.86A7.94,7.94,0,0,1,297.07,313.89Z"/><path class="cls-1" d="M289.11,357.3V340.47H306a7.93,7.93,0,0,1,8,8v16.83H297.07A8.08,8.08,0,0,1,289.11,357.3Z"/><path class="cls-1" d="M279.37,313.89H262.44v16.83a7.93,7.93,0,0,0,8,8h16.92V321.86A7.93,7.93,0,0,0,279.37,313.89Z"/><path class="cls-1" d="M262.44,348.44v16.83h16.93a7.93,7.93,0,0,0,8-8V340.47H270.41A8,8,0,0,0,262.44,348.44Z"/><path class="cls-1" d="M191.63,366.93h16.93v16.83a7.93,7.93,0,0,1-8,8H183.66V374.9A7.94,7.94,0,0,1,191.63,366.93Z"/><path class="cls-1" d="M173.93,366.93H157v16.83a7.93,7.93,0,0,0,8,8h16.92V374.9A7.93,7.93,0,0,0,173.93,366.93Z"/><path class="cls-1" d="M244.3,366.93h16.93v16.83a7.94,7.94,0,0,1-8,8H236.33V374.9A8,8,0,0,1,244.3,366.93Z"/><path class="cls-1" d="M226.71,366.93H209.78v16.83a7.93,7.93,0,0,0,8,8h16.93V374.9A8.07,8.07,0,0,0,226.71,366.93Z"/><path class="cls-1" d="M297.07,366.93H314v16.83a7.93,7.93,0,0,1-8,8H289.11V374.9A7.93,7.93,0,0,1,297.07,366.93Z"/><path class="cls-1" d="M279.37,366.93H262.44v16.83a7.93,7.93,0,0,0,8,8h16.92V374.9A7.93,7.93,0,0,0,279.37,366.93Z"/></svg>